<svg xmlns="http://www.w3.org/2000/svg" xmlns:xlink="http://www.w3.org/1999/xlink" id="Layer_1" x="0px" y="0px" viewBox="0 0 251.5 77.5" style="enable-background:new 0 0 251.5 77.5;" xml:space="preserve"><style type="text/css">	.st0{fill:#293A8E;}</style><g id="XMLID_209_">	<path id="XMLID_379_" class="st0" d="M8.6,54.1c0.2,1.2,0.3,2.3,0.6,3.4l0.1,0.4l0,0.2l0,0.1l0,0.2c0.1,0.3,0.1,0.5,0.2,0.8  c0.2,0.5,0.4,1.2,0.6,1.7c0.9,2.1,2.3,3.8,3.8,5c1.5,1.2,3.1,2,4.5,2.5c1.4,0.5,2.7,0.7,3.8,0.8c0.5,0.1,1,0.1,1.4,0.1  c0.1,0,0.3,0,0.4,0c0,0,0,0,0,0H41l0,0c0.1,0,0.1,0,0.2,0c0.4,0,0.9,0,1.4-0.1c1.1-0.1,2.3-0.3,3.8-0.8c1.4-0.5,3-1.3,4.5-2.5  c1.5-1.2,2.9-2.9,3.8-5c0.2-0.5,0.4-1.1,0.6-1.7c0.1-0.3,0.1-0.5,0.2-0.8l0-0.2l0-0.1l0-0.2l0.1-0.4c0.2-1.1,0.4-2.2,0.6-3.4  c0.3-2.3,0.7-4.7,0.8-7.1c0.2-2.4,0.3-4.9,0.3-7.4c0-2.5-0.1-5-0.3-7.4c-0.2-2.4-0.5-4.8-0.8-7.1c-0.2-1.2-0.3-2.3-0.6-3.4  l-0.1-0.4c0-0.2-0.1-0.3-0.1-0.4c-0.1-0.3-0.1-0.6-0.2-0.9c-0.2-0.6-0.4-1.1-0.6-1.6c-0.9-2.1-2.3-3.8-3.8-5  c-1.5-1.2-3.1-2-4.5-2.5c-1.4-0.5-2.7-0.7-3.8-0.8c-0.5-0.1-1-0.1-1.4-0.1c-0.1,0-0.2,0-0.3,0c0,0,0,0,0,0H24l0,0  c-0.1,0-0.2,0-0.3,0c-0.4,0-0.9,0-1.4,0.1c-1.1,0.1-2.3,0.3-3.8,0.8c-1.4,0.5-3,1.3-4.5,2.5c-1.5,1.2-2.9,2.9-3.8,5  c-0.2,0.5-0.4,1.1-0.6,1.6c-0.1,0.3-0.1,0.6-0.2,0.9c0,0.1-0.1,0.3-0.1,0.4l-0.1,0.4C9,22.7,8.8,23.8,8.6,25  c-0.3,2.3-0.7,4.7-0.8,7.1c-0.2,2.4-0.3,4.9-0.3,7.4c0,2.5,0.1,5,0.3,7.4C8,49.4,8.3,51.8,8.6,54.1z M9.8,32.3  c0.1-2.4,0.3-4.7,0.6-7c0.1-1.1,0.3-2.2,0.4-3.3l0.1-0.4c0-0.1,0-0.2,0.1-0.4c0-0.2,0.1-0.5,0.1-0.7c0.1-0.5,0.2-1,0.4-1.4  c0.7-1.8,1.8-3.4,3-4.6c1.3-1.2,2.7-2.1,4-2.7c0.3-0.1,0.5-0.2,0.8-0.3c0.5-0.2,2.3-0.8,4.8-0.8h8.3l-0.8,2.8L29,12l1.5,2.6  l-2.9,0.8l2.9,0.8L29,18.9l2.6-1.5l0.7,2.4H24c-3.1,0-5.6,1.3-5.9,3.1l-1.6,9.8c1.7-1.2,3.4-2.5,3.8-2.8c0.7-1.9,3-3.3,4.7-3.8  c0.5-1.4,1.2-2.7,2-4.1c3.7-0.2,7.3,0,10.9,0.7c-0.2,0.1-0.4,0.3-0.6,0.4c-3.2-0.6-6.5-0.9-9.8-0.7c-0.7,1.2-1.4,2.3-1.9,3.5  c0.3-0.1,0.5-0.1,0.7-0.1c0.4-0.9,1-1.9,1.6-2.8c1.7,0,3.3,0,5,0.1c0.2,0,0.4,0,0.7,0.1c1.1,0.1,2.1,0.3,3.2,0.5  c-0.5,0.4-1,0.8-1.4,1.3c-0.8-0.1-1.6-0.3-2.5-0.3c-0.3,0.3-0.6,0.5-0.9,0.8c0,0,0,0,0,0c0,0,0,0,0,0c-0.1,0.1-0.2,0.3-0.4,0.4  c5.7,0.7,9.1,2.1,11.8,3.5c1.9,1,3.6,2.2,4.9,3.3l-1.6-9.8c-0.3-1.7-2.8-3.1-5.9-3.1h-8.3l0.7-2.4l2.6,1.5l-1.5-2.6l2.9-0.8  l-2.9-0.8l1.5-2.6l-2.6,1.5l-0.8-2.8h9.4c0.6,0,1.8,0.1,3.1,0.5c0.5,0.2,1,0.4,1.5,0.6c1.3,0.6,2.7,1.5,4,2.7  c1.3,1.2,2.3,2.8,3,4.6c0.2,0.4,0.3,0.9,0.4,1.4c0,0.2,0.1,0.5,0.1,0.7c0,0.1,0.1,0.2,0.1,0.4L54,22c0.1,1.1,0.3,2.2,0.4,3.3  c0.3,2.3,0.4,4.6,0.6,7c0.1,2.4,0.2,4.8,0.2,7.2c0,2.4-0.1,4.9-0.2,7.2c-0.1,2.4-0.3,4.7-0.6,7c-0.1,1.1-0.3,2.2-0.4,3.3l0,0.4  l0,0.1l0,0c0,0,0,0,0,0l0,0.1l0,0.2c-0.1,0.3-0.1,0.5-0.1,0.8c-0.1,0.5-0.2,0.9-0.4,1.4c-0.7,1.8-1.8,3.4-3,4.6  c-1.2,1.1-2.5,2-3.8,2.6c-2.8,1.2-5.8,1.2-5.8,1.2H33c0.2-0.1,0.4-0.2,0.7-0.5c0.3-0.3,0.6-1,0.3-0.9c-0.2,0-0.5,0.6-0.6,0.6  c-0.1,0.1-0.2-0.3-0.2-0.5c0-0.2-0.1-0.4-0.2-0.3c-0.1,0.1,0,0.6-0.1,0.7c-0.1,0.1-0.2,0.3-0.4-0.1c-0.2-0.4-0.3-0.5-0.4-0.4  c0,0-0.2,0.2,0.1,0.7c0.3,0.5,0.4,0.7,0.5,0.7H24c-0.1,0-0.4,0-0.8,0c-2.2,0-4.3-0.9-5.2-1.3c-1.2-0.6-2.4-1.4-3.5-2.5  c-1.3-1.2-2.3-2.8-3-4.6c-0.2-0.5-0.3-0.9-0.4-1.4c0-0.3-0.1-0.5-0.1-0.8l0-0.2l0-0.1c0,0,0,0.1,0,0l0,0l0-0.1l0-0.4  c-0.1-1.1-0.3-2.2-0.4-3.3c-0.3-2.3-0.4-4.6-0.6-7c-0.1-2.4-0.2-4.8-0.2-7.2C9.6,37.1,9.7,34.7,9.8,32.3z M32.4,11.9L33,14l1.9-1.1  l-1.1,1.9l2.1,0.6l-2.1,0.6L35,18L33,16.9l-0.6,2.1l-0.6-2.1L29.9,18l1.1-1.9l-2.1-0.6l2.1-0.6l-1.1-1.9l1.9,1.1L32.4,11.9z"></path>	<path id="XMLID_378_" class="st0" d="M25.7,50.7c0.7-0.4,1.3-0.7,1.9-1.1c-0.2-0.1-0.3-0.2-0.5-0.3c-0.6,0.4-1.3,0.8-2,1.2  C25.3,50.6,25.5,50.7,25.7,50.7z"></path>	<path id="XMLID_377_" class="st0" d="M26,49.5C25.9,49.5,25.9,49.5,26,49.5L26,49.5z"></path>	<path id="XMLID_376_" class="st0" d="M34,49c-0.1,0-0.3,0-0.4-0.1c-0.4-0.1-0.9-0.1-1.3-0.2c0,0.1,0,0.3,0,0.4  c1.5,0.3,3.1,0.5,4.7,0.5c0-0.1-0.1-0.3-0.1-0.4C35.8,49.2,34.9,49.1,34,49z"></path>	<path id="XMLID_375_" class="st0" d="M31.1,51.1c-0.3-0.1-0.5-0.2-0.8-0.3c-0.4,0.3-0.7,0.6-1.1,0.9c0.3,0.1,0.6,0.1,1,0.2  C30.4,51.6,30.8,51.4,31.1,51.1z"></path>	<path id="XMLID_374_" class="st0" d="M26.4,51c0.2,0.1,0.5,0.1,0.7,0.2c0.5-0.3,1.1-0.7,1.6-1.1c-0.2-0.1-0.4-0.2-0.5-0.3  C27.6,50.2,27,50.6,26.4,51z"></path>	<path id="XMLID_373_" class="st0" d="M27.7,51.4c0.2,0.1,0.5,0.1,0.7,0.2c0.4-0.3,0.9-0.6,1.3-1c-0.2-0.1-0.4-0.2-0.6-0.2  C28.7,50.7,28.2,51,27.7,51.4z"></path>	<path id="XMLID_372_" class="st0" d="M42.1,48.3c-0.5,0.1-1,0.2-1.4,0.2c0.1,0.3,0.2,0.7,0.3,1c0.5-0.2,1-0.3,1.5-0.5  c-0.1-0.1-0.2-0.3-0.3-0.4C42.1,48.5,42.1,48.4,42.1,48.3z"></path>	<path id="XMLID_371_" class="st0" d="M46.4,47.2c-0.7,0.2-1.3,0.5-2,0.6c0.1,0.1,0.1,0.1,0.2,0.2c0,0,0,0.1,0,0.1  C45.2,47.8,45.8,47.5,46.4,47.2z"></path>	<path id="XMLID_370_" class="st0" d="M44.1,48.2c-0.2-0.4-0.7-0.6-1.1-0.5c-0.4,0.1-0.6,0.4-0.4,0.8c0.2,0.4,0.7,0.6,1.1,0.5  C44.1,48.9,44.3,48.5,44.1,48.2z"></path>	<path id="XMLID_369_" class="st0" d="M31.2,52.1c2.3,0.4,4.7,0.5,7.1,0.4c-2.2-0.2-4.4-0.5-6.3-1.1C31.7,51.6,31.5,51.9,31.2,52.1z  "></path>	<path id="XMLID_368_" class="st0" d="M29.8,54.7c-0.1,0.1-0.3,0.2-0.4,0.4c0.7,0.1,1.4,0.2,2,0.3c0.2,0,0.4,0,0.6,0.1  c1.4,0.1,2.9,0.2,4.3,0.2c0.1-0.1,0.2-0.3,0.2-0.4C34.3,55.2,32,55,29.8,54.7z"></path>	<path id="XMLID_367_" class="st0" d="M20.3,31C20.3,31,20.3,31,20.3,31c-0.7,0.2-1.3,0.5-1.8,0.9c0.7-0.2,1.3-0.5,2-0.6  C20.4,31.2,20.4,31.1,20.3,31z"></path>	<path id="XMLID_366_" class="st0" d="M37.2,54c-1.3,0-2.7,0-4-0.1c-0.2,0.2-0.3,0.4-0.5,0.6c1.4,0.1,2.8,0.2,4.2,0.1  C37,54.4,37.1,54.2,37.2,54z"></path>	<path id="XMLID_365_" class="st0" d="M37.3,50.7c-0.1-0.2-0.2-0.4-0.2-0.6c-1,0-2.1-0.1-3.1-0.2c0,0.2,0.1,0.4,0.1,0.6  C35.2,50.7,36.2,50.7,37.3,50.7z"></path>	<path id="XMLID_364_" class="st0" d="M36.7,29.2c0.5-0.4,1.1-0.7,1.7-1.1C38.2,28,38,28,37.8,27.9c-0.5,0.3-1.1,0.7-1.6,1.1  C36.4,29,36.6,29.1,36.7,29.2z"></path>	<path id="XMLID_363_" class="st0" d="M35.7,28.7c0.5-0.3,0.9-0.7,1.4-1c-0.2-0.1-0.5-0.1-0.7-0.2c-0.4,0.3-0.9,0.6-1.3,1  C35.3,28.6,35.5,28.6,35.7,28.7z"></path>	<path id="XMLID_362_" class="st0" d="M21.9,31.4c0.4-0.1,0.6-0.4,0.4-0.8c-0.2-0.4-0.7-0.6-1.1-0.5c-0.4,0.1-0.6,0.5-0.4,0.9  C21,31.3,21.5,31.5,21.9,31.4z"></path>	<path id="XMLID_318_" class="st0" d="M39.9,52.9c-0.5,1.4-1.2,2.7-2,4.1c-3.7,0.2-7.3,0-10.9-0.8c0.2-0.1,0.4-0.3,0.6-0.4  c3.2,0.6,6.5,0.9,9.8,0.7c0.7-1.2,1.4-2.3,1.9-3.5c-0.3,0.1-0.5,0.1-0.7,0.1c-0.4,0.9-1,1.9-1.6,2.8c-1.7,0-3.3,0-5-0.1  c-0.2,0-0.4,0-0.7-0.1c-1.1-0.1-2.1-0.3-3.2-0.5c0.5-0.4,1-0.8,1.4-1.3c0.8,0.1,1.6,0.3,2.5,0.3c0.3-0.3,0.6-0.5,0.9-0.8  c0,0,0,0,0,0c0,0,0,0,0,0c0.1-0.1,0.2-0.3,0.4-0.4c-5.7-0.7-9.1-2.1-11.8-3.5c-1.9-1-3.6-2.2-4.9-3.3l1.6,9.8  c0.3,1.7,2.8,3.1,5.9,3.1h5c-0.7,0.7-0.2,1.8,0.1,1.9c-0.6,0.4-0.9,1.3-1.2,1.9c-0.2,0.6-1.1,2.8-1.1,2.8l0.2,0.1l0.2-0.3l0.2,0.1  L27.2,66l0.2,0.1l0.1-0.4l0.1,0l-0.1,0.4c0.1,0,0.1,0,0.2,0.1l0.2-0.4l0.1,0.1l-0.1,0.4l0.3,0.1l0.1-0.4l0.1,0l0.1,0l-0.1,0.3  c0.1,0,0.2,0.1,0.2,0.1c0,0,0.4-1,0.8-2.6c0.4-1.6,0.8-2,1-2.1c0.7-0.5,1.8-0.8,2.2-0.8c1.3,0,1.9,0.4,2.3,0.7  c0.4,0.3,0.6,1,0.8,1.7c0.1,0.7,0.8,3.3,0.8,3.3l0.2-0.1l0-0.4l0.1,0.3l0.2-0.1l-0.1-0.3l0.1,0l0.2,0.4l0.3-0.1L37.2,66l0.2-0.1  l0.1,0.4l0.2-0.1l-0.2-0.3l0.2-0.1c0,0,0.1,0.2,0.2,0.3c0,0.1,0.2,0,0.2,0c0-1.2-0.5-2.4-0.9-3.4c-0.4-1-0.9-1.7-1-1.9  c0.5-0.6,0-1.4-0.1-1.5h4.7c3.1,0,5.6-1.3,5.9-3.1l1.6-9.8c-1.7,1.2-3.4,2.5-3.8,2.8C43.9,51,41.6,52.5,39.9,52.9z M29,61.6  c0.1,0.2,0.2,0.3,0.3,0.5l-0.1,0.1c0,0-0.2-0.3-0.3-0.4c-0.1,0-0.5,0.2-0.5,0.2l0-0.1C28.7,61.7,28.9,61.7,29,61.6z M28.8,62.2  c0.1,0.2,0.2,0.4,0.4,0.6L29,62.8c0,0-0.3-0.4-0.3-0.5c-0.1,0-0.5,0.2-0.5,0.2l0-0.1C28.4,62.3,28.6,62.2,28.8,62.2z M28.6,62.7  c0.1,0.2,0.2,0.4,0.4,0.6l-0.1,0.1c0,0-0.3-0.4-0.3-0.5c-0.1,0-0.5,0.2-0.5,0.2l0-0.1C28.2,62.8,28.4,62.7,28.6,62.7z M28.4,63.2  c0.1,0.2,0.2,0.4,0.4,0.6l-0.1,0.1c0,0-0.3-0.4-0.3-0.5c-0.1,0-0.5,0.2-0.5,0.2l0-0.1C28,63.4,28.2,63.3,28.4,63.2z M28.2,63.8  c0.1,0.2,0.2,0.4,0.4,0.6l-0.1,0.1c0,0-0.3-0.4-0.3-0.5c-0.1,0-0.5,0.2-0.5,0.2l0-0.1C27.8,64,28,63.9,28.2,63.8z M28.1,65.6  c0,0-0.3-0.4-0.3-0.5c-0.1,0-0.5,0.2-0.5,0.2l0-0.1c0.2-0.1,0.4-0.1,0.6-0.2c0.1,0.2,0.3,0.4,0.4,0.6L28.1,65.6z M28.3,65  c0,0-0.3-0.4-0.3-0.5c-0.1,0-0.5,0.2-0.5,0.2l0-0.1c0.2-0.1,0.4-0.1,0.6-0.2c0.1,0.2,0.2,0.4,0.4,0.6L28.3,65z M28.5,65.7  c-0.1,0-0.1-0.1-0.1-0.1c0-0.1,0.1-0.1,0.2-0.1c0.1,0,0.1,0.1,0.1,0.1C28.6,65.6,28.6,65.7,28.5,65.7z M28.7,65.1  c-0.1,0-0.1-0.1-0.1-0.1c0-0.1,0.1-0.1,0.1-0.1c0.1,0,0.1,0.1,0.1,0.1C28.8,65.1,28.8,65.1,28.7,65.1z M28.9,64.6  c-0.1,0-0.1-0.1-0.1-0.1c0-0.1,0.1-0.1,0.1-0.1c0.1,0,0.1,0.1,0.1,0.1C29,64.5,29,64.6,28.9,64.6z M29.1,64c-0.1,0-0.1-0.1-0.1-0.1  c0-0.1,0.1-0.1,0.1-0.1c0.1,0,0.1,0.1,0.1,0.1C29.2,64,29.1,64,29.1,64z M29.2,63.4c-0.1,0-0.1-0.1-0.1-0.1c0-0.1,0.1-0.1,0.1-0.1  c0.1,0,0.1,0.1,0.1,0.1C29.4,63.4,29.3,63.4,29.2,63.4z M29.4,62.8c-0.1,0-0.1-0.1-0.1-0.1c0-0.1,0.1-0.1,0.1-0.1  c0.1,0,0.1,0.1,0.1,0.1C29.6,62.8,29.5,62.8,29.4,62.8z M29.6,62.3c-0.1,0-0.1-0.1-0.1-0.1c0-0.1,0.1-0.1,0.1-0.1  c0.1,0,0.1,0.1,0.1,0.1C29.8,62.2,29.7,62.3,29.6,62.3z M29.8,60.8c-0.4,0.2-0.8,0-0.9-0.4c-0.1-0.4,0-1,0.4-1.2c0,0,0.1,0,0.1,0  h0.5c0.2,0.1,0.3,0.2,0.4,0.4C30.3,60.1,30.2,60.6,29.8,60.8z M30.1,61.8c-0.1,0-0.1-0.1-0.1-0.1c0-0.1,0.1-0.1,0.1-0.1  c0.1,0,0.1,0.1,0.1,0.1C30.2,61.7,30.1,61.8,30.1,61.8z M30.6,61.4c-0.1,0-0.1-0.1-0.1-0.1c0-0.1,0.1-0.1,0.1-0.1  c0.1,0,0.1,0.1,0.1,0.1C30.7,61.4,30.6,61.4,30.6,61.4z M31.1,61.1C31,61.1,31,61.1,31,61c0-0.1,0.1-0.1,0.1-0.1  c0.1,0,0.1,0.1,0.1,0.1C31.2,61.1,31.2,61.1,31.1,61.1z M31.5,60.9c-0.1,0-0.1-0.1-0.1-0.1c0-0.1,0.1-0.1,0.1-0.1  c0.1,0,0.1,0.1,0.1,0.1C31.7,60.9,31.6,60.9,31.5,60.9z M32,60.8c-0.1,0-0.1-0.1-0.1-0.1c0-0.1,0.1-0.1,0.1-0.1  c0.1,0,0.1,0.1,0.1,0.1C32.2,60.8,32.1,60.8,32,60.8z M32.6,60.7c-0.1,0-0.1,0-0.1-0.1c0-0.1,0.1-0.1,0.1-0.1c0.1,0,0.1,0,0.1,0.1  C32.7,60.7,32.7,60.7,32.6,60.7z M33.2,60.8c-0.1,0-0.1,0-0.1-0.1c0-0.1,0-0.1,0.1-0.1c0.1,0,0.1,0,0.1,0.1  C33.3,60.7,33.2,60.8,33.2,60.8z M33.8,60.9c-0.1,0-0.1,0-0.1-0.1c0-0.1,0-0.1,0.1-0.1c0.1,0,0.1,0,0.1,0.1  C33.9,60.9,33.9,60.9,33.8,60.9z M34.3,61.1c-0.1,0-0.1,0-0.1-0.1c0-0.1,0-0.1,0.1-0.1c0.1,0,0.1,0,0.1,0.1  C34.4,61.1,34.4,61.1,34.3,61.1z M34.8,61.4c-0.1,0-0.1,0-0.1-0.1c0-0.1,0-0.1,0.1-0.1c0.1,0,0.1,0,0.1,0.1  C35,61.3,34.9,61.3,34.8,61.4z M35,61c-1.5-0.8-2.6-0.8-3.4-0.5c-0.8,0.2-1.4,0.7-1.4,0.7c0,0-0.1-0.1-0.1-0.3  c0.4-0.4,0.4-0.9,0.3-1.2c-0.1-0.2-0.1-0.4-0.2-0.5h4.9c0,0,0,0-0.1,0.1c-0.3,0.3-0.4,1.1,0.1,1.5C35.1,60.8,35.1,60.9,35,61z   M35.3,61.9c-0.1,0-0.1,0-0.1-0.1c0-0.1,0-0.1,0.1-0.1c0.1,0,0.1,0,0.1,0.1C35.4,61.8,35.4,61.9,35.3,61.9z M35.4,62.4  c0-0.1,0-0.1,0.1-0.1c0.1,0,0.1,0,0.1,0.1c0,0.1,0,0.1-0.1,0.1C35.5,62.5,35.4,62.4,35.4,62.4z M35.6,63c0-0.1,0-0.1,0.1-0.1  c0.1,0,0.1,0,0.1,0.1c0,0.1,0,0.1-0.1,0.1C35.7,63.1,35.6,63.1,35.6,63z M35.8,63.6c0-0.1,0-0.1,0.1-0.1c0.1,0,0.1,0,0.1,0.1  c0,0.1,0,0.1-0.1,0.1C35.8,63.8,35.8,63.7,35.8,63.6z M35.9,64.2c0-0.1,0-0.1,0.1-0.1c0.1,0,0.1,0,0.2,0.1c0,0.1,0,0.1-0.1,0.1  C36,64.3,35.9,64.2,35.9,64.2z M36,64.7c0-0.1,0-0.1,0.1-0.1c0.1,0,0.1,0,0.2,0.1c0,0.1,0,0.1-0.1,0.1C36.1,64.9,36,64.8,36,64.7z   M36.2,65.3c0-0.1,0-0.1,0.1-0.1c0.1,0,0.1,0,0.2,0.1c0,0.1,0,0.1-0.1,0.1C36.3,65.4,36.2,65.3,36.2,65.3z M36.5,65.9  c-0.1,0-0.1,0-0.2-0.1c0-0.1,0-0.1,0.1-0.1c0.1,0,0.1,0,0.2,0.1C36.6,65.8,36.6,65.9,36.5,65.9z M37.7,65.5c0,0-0.4-0.2-0.5-0.2  c-0.1,0.1-0.4,0.5-0.4,0.5l-0.1-0.1c0.1-0.2,0.3-0.4,0.4-0.6l0.6,0.3L37.7,65.5z M37.6,64.8c0,0-0.4-0.2-0.5-0.2  c-0.1,0.1-0.4,0.5-0.4,0.5L36.6,65c0.1-0.2,0.3-0.4,0.4-0.6l0.6,0.3L37.6,64.8z M37.4,64l-0.1,0.1c0,0-0.4-0.2-0.5-0.2  c-0.1,0.1-0.4,0.5-0.4,0.5l-0.1-0.1c0.1-0.2,0.3-0.4,0.4-0.6C37,63.9,37.2,64,37.4,64z M37.2,63.6c0,0-0.4-0.2-0.5-0.2  c-0.1,0.1-0.4,0.5-0.4,0.5l-0.1-0.1c0.1-0.2,0.3-0.4,0.4-0.6c0.2,0.1,0.4,0.2,0.6,0.3L37.2,63.6z M37,63c0,0-0.4-0.2-0.5-0.2  c0,0.1-0.3,0.5-0.4,0.5l-0.1-0.1c0.1-0.2,0.3-0.4,0.4-0.6c0.2,0.1,0.4,0.2,0.5,0.3L37,63z M36.8,62.4c0,0-0.4-0.2-0.4-0.2  c0,0.1-0.3,0.5-0.3,0.5l-0.1-0.1c0.1-0.2,0.3-0.4,0.4-0.6c0.2,0.1,0.4,0.2,0.5,0.3L36.8,62.4z M36.6,61.6l0,0.1  c0,0-0.4-0.2-0.4-0.2c0,0.1-0.3,0.5-0.3,0.5l-0.1-0.1c0.1-0.2,0.3-0.4,0.4-0.6C36.2,61.4,36.4,61.5,36.6,61.6z M36.2,59.6  c0.2,0.4,0.2,0.9-0.1,1.2c-0.3,0.3-0.7,0.2-1-0.2c-0.2-0.4-0.1-0.9,0.1-1.2C35.5,59.1,35.9,59.2,36.2,59.6z"></path>	<path id="XMLID_317_" class="st0" d="M35.7,27.4c-0.3-0.1-0.6-0.1-1-0.2c-0.3,0.3-0.7,0.6-1,0.8c0.3,0.1,0.5,0.2,0.8,0.3  C34.9,28,35.3,27.7,35.7,27.4z"></path>	<path id="XMLID_316_" class="st0" d="M37.7,29.7c0.6-0.4,1.3-0.8,2-1.2c-0.2-0.1-0.4-0.2-0.7-0.2c-0.7,0.4-1.3,0.7-1.9,1.1  C37.4,29.5,37.6,29.6,37.7,29.7z"></path>	<path id="XMLID_315_" class="st0" d="M38.9,29.6C38.9,29.6,38.9,29.6,38.9,29.6L38.9,29.6z"></path>	<path id="XMLID_314_" class="st0" d="M31.6,25.2c0.2-0.2,0.3-0.4,0.5-0.6c-1.4-0.1-2.8-0.2-4.2-0.1c-0.1,0.2-0.2,0.4-0.3,0.6  C28.9,25,30.3,25.1,31.6,25.2z"></path>	<path id="XMLID_313_" class="st0" d="M22.8,30.8c0.5-0.1,1-0.2,1.4-0.2c-0.1-0.3-0.2-0.7-0.3-1c-0.5,0.2-1,0.3-1.5,0.5  c0.1,0.1,0.2,0.3,0.3,0.4C22.8,30.6,22.8,30.7,22.8,30.8z"></path>	<path id="XMLID_312_" class="st0" d="M35.1,24.4c0.1-0.1,0.3-0.2,0.4-0.4c-0.7-0.1-1.4-0.2-2-0.3c-0.2,0-0.4,0-0.6-0.1  c-1.4-0.1-2.9-0.2-4.3-0.2c-0.1,0.1-0.2,0.3-0.2,0.4C30.5,23.9,32.8,24.1,35.1,24.4z"></path>	<path id="XMLID_311_" class="st0" d="M30.9,30.1c0.1,0,0.3,0,0.4,0.1c0.4,0.1,0.9,0.1,1.3,0.2c0-0.1,0-0.3,0-0.4  c-1.5-0.3-3.1-0.5-4.7-0.5c0,0.1,0.1,0.3,0.1,0.4C29,29.9,29.9,30,30.9,30.1z"></path>	<path id="XMLID_310_" class="st0" d="M33.6,27c-2.3-0.4-4.7-0.5-7.1-0.4c2.2,0.2,4.4,0.5,6.3,1.1C33.1,27.5,33.4,27.2,33.6,27z"></path>	<path id="XMLID_309_" class="st0" d="M27.5,28.3c0.1,0.2,0.2,0.4,0.2,0.6c1,0,2.1,0.1,3.1,0.2c0-0.2-0.1-0.4-0.1-0.6  C29.7,28.4,28.6,28.3,27.5,28.3z"></path>	<path id="XMLID_308_" class="st0" d="M50.2,37.1c0,0,0.2,0.1,0.4,0c0.2-0.1,0.4,0,0.7,0.2c0.3,0.2,0.7,0,0.8-0.2  c0.1-0.2,0.1-0.5,0.1-0.8c0-0.4-0.4-0.2-0.5-0.1c-0.1,0.1-0.4,0.2-0.8-0.1c-0.3-0.3-1.1-0.2-1.1,0.5C49.7,37.2,50.2,37.1,50.2,37.1  z"></path>	<path id="XMLID_307_" class="st0" d="M14.4,37.1c0.2,0.1,0.4,0,0.4,0s0.4,0,0.4-0.7c0-0.7-0.8-0.8-1.1-0.5  c-0.3,0.3-0.7,0.2-0.8,0.1c-0.1-0.1-0.5-0.3-0.5,0.1c0,0.4,0,0.6,0.1,0.8c0.1,0.2,0.5,0.4,0.8,0.2C14,37.1,14.2,37,14.4,37.1z"></path>	<path id="XMLID_300_" class="st0" d="M13.4,46.2c1.9,1.3,1.3,3.2,1.3,3.5c0,0.2-0.1,0.5,0.3,0.6c0.4,0.1,1.2-0.8,0.5-2.9  c-0.7-2.1-3.2-2.1-3.8-5.6c0,0,0.7,2.6,2.9,3.2c0.6,0.2,1.1-0.3,1-1.5c-0.1-0.3-0.5,1.1-1.9-0.2c-1.4-1.4-1.3-2.5-1.3-2.6  c0,0,0.5,2.4,2,2.7c1.4,0.3,1.1-1.1,1-1.3c-0.1-0.1-0.4,0.4-0.8,0.2c-0.4-0.3-1.4-1-1.3-1.9c0.1-0.2,0.1,0.8,0.8,1.1  c0.5,0.2,1.2,0.4,1.5-0.1c0.1,0.7,0.1,1.5,0.3,2.2l0.2,1c2.3,1.8,6.3,4.9,8.3,5.8c0.2-0.1,0.5-0.2,0.7-0.4c-2.1-1-6.9-5-8.7-6.4  c0.6-0.1,1.2-0.2,1.7-0.4c1.4,1.4,5.9,5.3,7.8,6.3c0.1-0.1,0.4-0.2,0.7-0.4c-1.7-1-5.9-4.9-7.2-6.2c0.5-0.1,1.2-0.3,1.7-0.5  c0.4,0.5,2.3,3.3,5.8,5.8c1.9,1.3,4,2.3,6.7,3c0-0.1,0-0.2-0.1-0.3c0,0,0,0,0,0c0,0,0,0,0,0c-0.1-0.3-0.1-0.6-0.2-0.9  c-0.6-0.1-1.2-0.2-1.8-0.3c0-0.5,0.1-1,0.2-1.5c0.6,0.2,1.3,0.3,1.9,0.4c0.1,0,0.3,0,0.4,0.1c1,0.1,2,0.2,3,0.2c0.3,1,0.8,2,1.3,3  c0.2,0,0.3,0,0.5-0.1c-0.7-1.1-1.2-2.2-1.6-3.3c-1.9,0-3.7-0.3-5.5-0.7c0-0.2,0.1-0.4,0.1-0.5c1.9,0.5,3.8,0.7,5.8,0.8  c0.5,1.3,1.1,2.5,1.9,3.7c2.8-0.8,3.2-2.2,3.2-2.1c-0.7,0.3-1.7,0.8-2.5,1.1c-0.2-0.8-0.3-1.7-0.5-2.5c0.8-0.1,1.6-0.2,2.4-0.3  c0.1-0.2,0.3-0.4,0.6-0.4c0.3-0.1,0.6,0,0.9,0.1c1.7-0.4,3.4-1,4.9-1.8l0.3-2c0.1-0.8,0.2-1.6,0.3-2.4c0.3,0.8,1,0.6,1.6,0.3  c0.7-0.3,0.8-1.3,0.8-1.1c0.2,0.9-0.8,1.6-1.3,1.9c-0.4,0.3-0.7-0.3-0.8-0.2c-0.1,0.1-0.4,1.6,1,1.3c1.4-0.3,2-2.7,2-2.7  c0,0.2,0.1,1.3-1.3,2.6c-1.4,1.4-1.8-0.1-1.9,0.2c-0.2,1.2,0.3,1.7,1,1.5c2.1-0.7,2.9-3.2,2.9-3.2c-0.6,3.5-3.2,3.5-3.8,5.6  c-0.7,2.1,0.1,3,0.5,2.9c0.4-0.1,0.4-0.3,0.3-0.6c0-0.2-0.6-2.2,1.3-3.5c1.9-1.3,2.6-2.2,2.8-3.9c0.2-1.8-1.1-3.2-2.3-3.1  c-0.1,0-0.2,0-0.3,0.1l0,0c0,0-0.1-0.1-0.1-0.5h0.3c1.1,0,2-0.9,2-2v-0.3c0-1.1-0.9-2-2-2h-1.3c-0.7,0-1.3,0.4-1.7,0.9l-0.1-0.8  c-2.3-1.8-6.3-4.9-8.3-5.8c-0.2,0.1-0.5,0.2-0.7,0.4c2.1,1,6.9,5,8.7,6.4c-0.6,0.1-1.2,0.2-1.7,0.4c-1.4-1.4-5.9-5.3-7.8-6.3  c-0.1,0.1-0.4,0.2-0.7,0.4c1.7,1,5.9,4.9,7.2,6.2c-0.5,0.1-1.2,0.3-1.7,0.5c-0.4-0.5-2.3-3.3-5.8-5.8c-1.9-1.3-4-2.3-6.7-3  c0,0.1,0,0.2,0.1,0.3c0,0,0,0,0,0c0,0,0,0,0,0c0.1,0.3,0.1,0.6,0.2,0.9c0.6,0.1,1.2,0.2,1.8,0.3c0,0.5-0.1,1-0.2,1.5  c-0.6-0.2-1.3-0.3-1.9-0.4c-0.1,0-0.3,0-0.4-0.1c-1-0.1-2-0.2-3-0.2c-0.3-1-0.8-2-1.3-3c-0.2,0-0.3,0-0.5,0.1  c0.7,1.1,1.2,2.2,1.6,3.3c1.9,0,3.7,0.3,5.5,0.7c0,0.2-0.1,0.4-0.1,0.5c-1.9-0.5-3.8-0.7-5.8-0.8c-0.5-1.3-1.1-2.5-1.9-3.7  c-2.8,0.8-3.2,2.2-3.2,2.1c0.7-0.3,1.7-0.8,2.5-1.1c0.2,0.8,0.3,1.7,0.5,2.5c-0.8,0.1-1.6,0.2-2.4,0.3c-0.1,0.2-0.3,0.4-0.6,0.4  c-0.3,0.1-0.6,0-0.9-0.1c-1.7,0.4-3.4,1-4.9,1.8L16,35.3c-0.4-0.5-0.9-0.8-1.6-0.8h-1.3c-1.1,0-2,0.9-2,2v0.3c0,1.1,0.9,2,2,2h0.3  c0,0.4-0.1,0.5-0.1,0.5l0,0c-0.1,0-0.2,0-0.3-0.1c-1.2-0.2-2.5,1.3-2.3,3.1C10.8,44,11.6,44.9,13.4,46.2z M49.8,35.8  c0.3-0.2,0.9-0.2,1.4-0.2c0.5,0,1.1,0,1.3,0.3c0.3,0.3,0.3,0.7,0.3,0.7c0,0.6-0.5,1-1.6,1c-1.3,0.1-1.8-0.5-1.8-1  C49.4,36.6,49.4,36.1,49.8,35.8z M50.5,38.7h0.1c0,0.5-0.1,1.5-0.5,1.7c0,0-0.1,0-0.1,0c-0.5,0.1-0.6-0.6-0.9-0.6  c0-0.6,0-1.1,0-1.7C49.5,38.5,50,38.7,50.5,38.7z M25.4,39.5c0-0.4,0.4-0.8,0.8-0.8h5.4l0-5l1,0.2l0,0c0.4,0.1,0.7,0.4,0.7,0.8l0,4  h6.1v0.9c0,0.4-0.4,0.8-0.8,0.8h-5.3v5l-1.1-0.2c0,0,0,0,0,0c-0.3-0.1-0.6-0.4-0.6-0.8v-4h-6.2V39.5z M15.6,39.9  c-0.2,0.2-0.3,0.7-0.8,0.6c0,0-0.1,0-0.1,0c-0.4-0.2-0.5-1.2-0.5-1.7h0.1c0.5,0,0.9-0.2,1.2-0.4C15.6,38.8,15.6,39.4,15.6,39.9z   M12.1,36.6c0,0,0-0.5,0.3-0.7c0.3-0.2,0.8-0.3,1.3-0.3c0.5,0,1.1,0,1.4,0.2c0.4,0.3,0.4,0.8,0.4,0.8c0,0.6-0.5,1.1-1.8,1  C12.7,37.6,12.1,37.2,12.1,36.6z"></path>	<path id="XMLID_291_" class="st0" d="M29.6,63.2c-0.1,0.3-0.4,1.5-0.7,2.5c0.8,0.2,1.5,0.3,2.3,0.4c0,0,0.1-1.7,0.3-4.8  C30.3,61.5,29.8,62.6,29.6,63.2z M30.1,62.8c0.2,0,0.3,0.2,0.3,0.4c0,0.2-0.2,0.4-0.3,0.3c-0.2,0-0.3-0.2-0.3-0.4  C29.8,63,30,62.8,30.1,62.8z M29.7,65.5c-0.2,0-0.4-0.2-0.4-0.4c0-0.2,0.2-0.3,0.4-0.3c0.2,0,0.4,0.2,0.4,0.4  C30.1,65.4,29.9,65.5,29.7,65.5z M30,64.5c-0.2,0-0.4-0.2-0.4-0.4c0-0.2,0.2-0.4,0.4-0.3c0.2,0,0.4,0.2,0.4,0.4  C30.4,64.3,30.2,64.5,30,64.5z M30.7,65.7c-0.2,0-0.4-0.2-0.4-0.4c0-0.2,0.2-0.4,0.4-0.4c0.2,0,0.4,0.2,0.4,0.4  C31.1,65.5,31,65.7,30.7,65.7z M30.9,64.5c-0.2,0-0.4-0.2-0.4-0.4c0-0.2,0.2-0.4,0.4-0.4c0.2,0,0.4,0.2,0.4,0.4  C31.3,64.3,31.1,64.5,30.9,64.5z M31.3,63.1c0,0.2-0.1,0.4-0.3,0.4c-0.2,0-0.3-0.2-0.3-0.4c0-0.2,0.2-0.4,0.3-0.4  C31.2,62.8,31.3,62.9,31.3,63.1z M30.7,62c0.2,0,0.3,0.1,0.3,0.3c0,0.2-0.1,0.3-0.3,0.3c-0.2,0-0.3-0.2-0.3-0.3  C30.4,62.1,30.6,62,30.7,62z"></path>	<path id="XMLID_271_" class="st0" d="M37.8,67.1c-0.5,0.1-1,0.2-1.5,0.3c-0.1-0.5-0.2-1-0.3-1.5c0,0-1,0.3-1.5,0.3  c-0.5,0.1-2.6,0.1-2.6,0c-1-0.1-2-0.3-3-0.5c-0.2,0.6-0.3,1.1-0.4,1.3c-0.5-0.2-1.1-0.3-1.6-0.5c0,0-0.5,0.1-0.3,0.6  c0.2,0.1,1.4,0.5,2.6,0.7c1.2,0.3,2.3,0.4,2.3,0.4c0,0,0.4-0.2,0.2-0.6c-0.5-0.1-1.5-0.3-2.2-0.4c0-0.1,0.1-0.3,0.1-0.5  c0-0.3,0.1-0.3,0.2-0.4c0.1-0.1,0.1,0.1,0.1,0.3c0,0.2,0.2,0.2,0.3,0.2c0.1,0,0-0.3,0.1-0.4c0.1-0.1,0.1-0.1,0.1,0.2  c-0.1,0.3,0.3,0.2,0.3,0.1c0,0,0-0.3,0-0.4c0,0,0.1,0,0.1,0s0,0.1,0,0.4c0.1,0.3,0.3,0,0.3-0.2c0.1-0.1,0.1-0.1,0.2,0.1  c-0.1,0.4,0.3,0.3,0.3,0.2c0-0.1,0.1-0.3,0.1-0.4c0.1-0.1,0.3,0,1,0c0.6,0,1.6,0.1,1.7,0c0,0,0.1,0.3,0.1,0.3  c0,0.6,0.3,0.3,0.3,0.3c0,0-0.1-0.4-0.1-0.5c0-0.1,0.2,0,0.2,0s0,0.1,0.1,0.4c0,0.3,0.2,0.1,0.3,0.1c0.1-0.1-0.2-0.4-0.1-0.4  c0.1-0.1,0.2-0.1,0.3,0c0,0.2,0,0.8,0,0.9c0,0-0.2,0-1.1,0.1c-0.3,0.3-0.1,0.6-0.1,0.6c0,0,3-0.2,3.9-0.5  C38.1,67.3,37.8,67.1,37.8,67.1z M27.2,67.1c-0.1,0-0.1,0-0.2-0.1c0-0.1,0-0.1,0.1-0.2c0.1,0,0.1,0,0.2,0.1  C27.3,67,27.3,67.1,27.2,67.1z M27.7,67.3c-0.1,0-0.1,0-0.2-0.1c0-0.1,0-0.1,0.1-0.2c0.1,0,0.1,0,0.2,0.1  C27.8,67.2,27.8,67.3,27.7,67.3z M28.3,67.5c-0.1,0-0.1,0-0.2-0.1c0-0.1,0-0.1,0.1-0.2c0.1,0,0.1,0,0.2,0.1  C28.4,67.4,28.4,67.5,28.3,67.5z M31.2,67.9c0.1,0,0.1,0,0.2,0.1c0,0.1,0,0.1-0.1,0.2c-0.1,0-0.1,0-0.2-0.1  C31.1,68.1,31.1,68,31.2,67.9z M30.5,67.8c0.1,0,0.1,0,0.2,0.1c0,0.1,0,0.1-0.1,0.2c-0.1,0-0.1,0-0.2-0.1  C30.4,67.9,30.4,67.8,30.5,67.8z M29.9,67.7c0.1,0,0.1,0,0.2,0.1c0,0.1,0,0.1-0.1,0.2c-0.1,0-0.1,0-0.2-0.1  C29.8,67.8,29.8,67.7,29.9,67.7z M29.2,66.4c0.1,0,0.1,0,0.2,0.1c0,0.1,0,0.1-0.1,0.2c-0.1,0-0.1,0-0.2-0.1  C29.1,66.5,29.1,66.5,29.2,66.4z M28.9,67.7c-0.1,0-0.1,0-0.2-0.1c0-0.1,0-0.1,0.1-0.2c0.1,0,0.1,0,0.2,0.1  C29,67.5,29,67.6,28.9,67.7z M29.2,67.1c-0.1,0-0.1,0-0.2-0.1c0-0.1,0-0.1,0.1-0.2c0.1,0,0.1,0,0.2,0.1  C29.3,67,29.2,67.1,29.2,67.1z M29.4,67.8c-0.1,0-0.1,0-0.2-0.1c0-0.1,0-0.1,0.1-0.2c0.1,0,0.1,0,0.2,0.1  C29.5,67.7,29.5,67.8,29.4,67.8z M34.7,68.1c-0.1,0-0.1,0-0.2,0c0-0.1,0-0.1,0-0.2c0.1,0,0.1,0,0.2,0C34.8,67.9,34.7,68,34.7,68.1z   M35.3,68c-0.1,0-0.1,0-0.2,0c0-0.1,0-0.1,0-0.2c0.1,0,0.1,0,0.2,0C35.3,67.9,35.3,68,35.3,68z M35.7,66.7c0.1,0,0.1,0,0.2,0  c0,0.1,0,0.1,0,0.2c-0.1,0-0.1,0-0.2,0C35.6,66.9,35.6,66.8,35.7,66.7z M35.7,67.2c0.1,0,0.1,0,0.2,0c0,0.1,0,0.1,0,0.2  c-0.1,0-0.1,0-0.2,0C35.7,67.3,35.7,67.2,35.7,67.2z M35.9,67.9c-0.1,0-0.1,0-0.2,0c0-0.1,0-0.1,0-0.2c0.1,0,0.1,0,0.2,0  C36,67.8,36,67.9,35.9,67.9z M36.5,67.9c-0.1,0-0.1,0-0.2,0c0-0.1,0-0.1,0-0.2c0.1,0,0.1,0,0.2,0C36.6,67.8,36.5,67.8,36.5,67.9z   M37.1,67.8c-0.1,0-0.1,0-0.2,0c0-0.1,0-0.1,0-0.2c0.1,0,0.1,0,0.2,0C37.1,67.7,37.1,67.7,37.1,67.8z M37.6,67.7  c-0.1,0-0.1,0-0.2,0c0-0.1,0-0.1,0-0.2c0.1,0,0.1,0,0.2,0C37.7,67.6,37.7,67.6,37.6,67.7z"></path>	<path id="XMLID_262_" class="st0" d="M35.9,65.8c-0.2-0.8-0.4-2.8-0.9-3.7c-0.2-0.4-0.7-0.7-1.2-0.8c0,1.6,0.1,3.1,0.1,4.7  C33.9,66,34.9,66,35.9,65.8z M34.2,63.6c0.2-0.1,0.4,0,0.4,0.3c0.1,0.2,0,0.4-0.2,0.5c-0.2,0.1-0.4,0-0.4-0.3  C33.9,63.9,34,63.7,34.2,63.6z M34.8,65.4c-0.1,0.2-0.3,0.2-0.5,0.1c-0.2-0.1-0.3-0.4-0.2-0.5c0.1-0.2,0.3-0.2,0.5-0.1  C34.8,65,34.9,65.2,34.8,65.4z M35.7,65.2c0,0.2-0.1,0.4-0.3,0.4c-0.2,0-0.3-0.2-0.3-0.4c0-0.2,0.2-0.4,0.3-0.4  C35.5,64.7,35.6,64.9,35.7,65.2z M35.4,63.9c0.1,0.2,0.1,0.4-0.1,0.5c-0.1,0.1-0.4,0-0.5-0.2c-0.1-0.2-0.1-0.4,0.1-0.5  C35.1,63.6,35.3,63.7,35.4,63.9z M34.9,62.8c0.1-0.1,0.3,0,0.4,0.2c0.1,0.2,0,0.4-0.1,0.5c-0.1,0.1-0.3,0-0.4-0.2  C34.7,63.1,34.7,62.9,34.9,62.8z M34.5,61.9c0.2,0,0.3,0.1,0.3,0.3c0,0.2-0.1,0.3-0.3,0.3c-0.2,0-0.3-0.1-0.3-0.3  C34.2,62.1,34.3,62,34.5,61.9z M34.1,62.6c0.1-0.1,0.3,0,0.4,0.2c0.1,0.2,0,0.4-0.1,0.5c-0.1,0.1-0.3,0-0.4-0.2  C33.9,62.9,33.9,62.7,34.1,62.6z"></path>	<path id="XMLID_261_" class="st0" d="M31.8,61.9l-0.1,1.2L31.6,63c0,0-0.1,0.2,0,0.5c0.1,0.3,0.1,0.4,0.1,0.4c0,0-0.1,0.1-0.1,0.1  l0.1,0.1l0.2-0.2c0,0,0.3,0.2,0.5,0c0.1,0.2,0.2,0.3,0.2,0.3l-0.2,0.2c0,0,0.1,0.3,0.1,0.3c0,0.1,0,0.5-0.1,0.6  c0,0.1,0.1,0.3-0.1,0.4C32.1,66,31.9,66,31.9,66c0,0,0.1,0.2,0.2,0.1c0.2-0.1,0.3-0.1,0.3-0.1c0.1,0,0.2-0.1,0.1-0.2  c0-0.2-0.1-0.4-0.1-0.4l0-0.2c0,0,0.1-0.1,0.1,0c0,0.1,0,0.2,0.1,0.4c0,0.1,0,0.5,0.1,0.5c0.1,0,0.6,0,0.6,0s0-0.2-0.1-0.3  c-0.2-0.1-0.3-0.1-0.3-0.5c-0.1-0.3-0.1-0.4,0-0.5c0.1-0.1,0.2-0.2,0.1-0.4C33,64.3,33,64.2,33,64.2s0.1-0.1,0.2-0.1  c0.1,0,0.3,0,0.3,0s0.1-0.1,0.1,0c0,0,0.1,0,0.1,0s0.2-0.2,0.1-0.3c-0.1-0.1,0-0.5,0-0.5l0-1c0,0-0.2,0-0.1,1  c-0.1,0.4-0.2,0.5-0.4,0.5c-0.1,0-0.3-0.3-0.3-0.3l-0.2-0.1c0,0,0.1-0.3,0.1-0.3c-0.1-0.1-0.2-0.2-0.2-0.2c0,0-0.5,0.3-0.5,0.4  c0,0.1,0.1,0.3,0.1,0.3c0,0-0.3,0.2-0.3-0.2c-0.1-0.4,0-1,0-1C31.9,62.6,32,61.6,31.8,61.9z"></path>	<path id="XMLID_258_" class="st0" d="M30,63.9c-0.1,0-0.3,0.1-0.3,0.2c0,0.1,0.1,0.2,0.2,0.2c0.1,0,0.3-0.1,0.3-0.2  C30.2,64,30.1,63.9,30,63.9z M30,64.2c-0.1,0-0.1-0.1-0.1-0.1c0-0.1,0.1-0.1,0.1-0.1c0.1,0,0.1,0.1,0.1,0.1  C30.1,64.2,30.1,64.2,30,64.2z"></path>	<path id="XMLID_255_" class="st0" d="M29.7,64.9c-0.1,0-0.3,0.1-0.3,0.2c0,0.1,0.1,0.2,0.3,0.2c0.1,0,0.3-0.1,0.3-0.2  C30,65,29.9,64.9,29.7,64.9z M29.7,65.3c-0.1,0-0.1-0.1-0.1-0.1c0-0.1,0.1-0.1,0.1-0.1c0.1,0,0.1,0.1,0.1,0.1  C29.9,65.2,29.8,65.3,29.7,65.3z"></path>	<path id="XMLID_252_" class="st0" d="M34.6,65c-0.1-0.1-0.3,0-0.3,0.1c-0.1,0.1,0,0.3,0.1,0.3c0.1,0.1,0.3,0,0.3-0.1  C34.7,65.2,34.7,65,34.6,65z M34.6,65.2c0,0.1-0.1,0.1-0.2,0c-0.1,0-0.1-0.1-0.1-0.2c0-0.1,0.1-0.1,0.2,0  C34.6,65.1,34.6,65.2,34.6,65.2z"></path>	<path id="XMLID_249_" class="st0" d="M35.1,65.2c0,0.2,0.1,0.3,0.2,0.3c0.1,0,0.2-0.1,0.2-0.3c0-0.2-0.1-0.3-0.2-0.3  C35.2,64.9,35.1,65,35.1,65.2z M35.3,65c0.1,0,0.1,0.1,0.1,0.1c0,0.1-0.1,0.1-0.1,0.1c-0.1,0-0.1-0.1-0.1-0.2  C35.2,65.1,35.3,65,35.3,65z"></path>	<path id="XMLID_246_" class="st0" d="M35,64.2c0.1,0.1,0.2,0.2,0.3,0.1c0.1-0.1,0.1-0.2,0-0.4c-0.1-0.1-0.2-0.2-0.3-0.1  C34.9,63.9,34.9,64.1,35,64.2z M35.1,64c0.1,0,0.1,0,0.2,0.1c0,0.1,0,0.2,0,0.2c-0.1,0-0.1,0-0.2-0.1C35,64.1,35,64,35.1,64z"></path>	<path id="XMLID_243_" class="st0" d="M34.4,64.3c0.1,0,0.2-0.2,0.1-0.3c-0.1-0.1-0.2-0.2-0.3-0.2c-0.1,0-0.2,0.2-0.1,0.3  C34.2,64.2,34.3,64.3,34.4,64.3z M34.3,63.9c0.1,0,0.1,0,0.2,0.1c0,0.1,0,0.2-0.1,0.2c-0.1,0-0.1,0-0.2-0.1  C34.2,64,34.2,63.9,34.3,63.9z"></path>	<path id="XMLID_240_" class="st0" d="M34.3,63.2c0.1,0,0.1-0.2,0.1-0.3c0-0.1-0.2-0.2-0.3-0.2c-0.1,0-0.1,0.2-0.1,0.3  C34.1,63.2,34.2,63.3,34.3,63.2z M34.2,62.9c0.1,0,0.1,0,0.1,0.1c0,0.1,0,0.1,0,0.2c-0.1,0-0.1,0-0.1-0.1  C34.1,63,34.1,62.9,34.2,62.9z"></path>	<path id="XMLID_237_" class="st0" d="M35.1,63.4c0.1,0,0.1-0.2,0.1-0.3c0-0.1-0.2-0.2-0.2-0.1c-0.1,0-0.1,0.2-0.1,0.3  C34.9,63.3,35,63.4,35.1,63.4z M35,63c0,0,0.1,0,0.1,0.1c0,0.1,0,0.1,0,0.2c0,0-0.1,0-0.1-0.1C34.9,63.1,34.9,63,35,63z"></path>	<path id="XMLID_234_" class="st0" d="M30.7,65c-0.1,0-0.3,0.1-0.3,0.3c0,0.1,0.1,0.3,0.3,0.3c0.1,0,0.3-0.1,0.3-0.3  C31,65.1,30.9,65,30.7,65z M30.7,65.4c-0.1,0-0.1-0.1-0.1-0.1c0-0.1,0.1-0.1,0.1-0.1c0.1,0,0.1,0.1,0.1,0.1  C30.9,65.3,30.8,65.4,30.7,65.4z"></path>	<path id="XMLID_231_" class="st0" d="M30.9,63.8c-0.1,0-0.3,0.1-0.3,0.3c0,0.1,0.1,0.3,0.2,0.3c0.1,0,0.3-0.1,0.3-0.3  C31.2,63.9,31.1,63.8,30.9,63.8z M30.9,64.2c-0.1,0-0.1-0.1-0.1-0.1c0-0.1,0.1-0.1,0.1-0.1c0.1,0,0.1,0.1,0.1,0.1  C31,64.2,31,64.2,30.9,64.2z"></path>	<path id="XMLID_228_" class="st0" d="M30.8,63.1c0,0.1,0.1,0.2,0.2,0.2c0.1,0,0.2-0.1,0.2-0.2c0-0.1-0.1-0.2-0.2-0.2  C30.9,62.9,30.8,63,30.8,63.1z M31.1,63.1c0,0.1-0.1,0.1-0.1,0.1c-0.1,0-0.1-0.1-0.1-0.1c0-0.1,0.1-0.1,0.1-0.1  C31.1,63,31.1,63.1,31.1,63.1z"></path>	<path id="XMLID_225_" class="st0" d="M30.1,63.4c0.1,0,0.2-0.1,0.2-0.2c0-0.1-0.1-0.2-0.2-0.2c-0.1,0-0.2,0.1-0.2,0.2  C29.9,63.3,30,63.4,30.1,63.4z M30.1,63c0.1,0,0.1,0.1,0.1,0.1c0,0.1-0.1,0.1-0.1,0.1c-0.1,0-0.1-0.1-0.1-0.1  C30,63.1,30.1,63,30.1,63z"></path>	<path id="XMLID_222_" class="st0" d="M30.7,62.5c0.1,0,0.2-0.1,0.2-0.2c0-0.1-0.1-0.2-0.2-0.2c-0.1,0-0.2,0.1-0.2,0.2  C30.5,62.4,30.6,62.5,30.7,62.5z M30.7,62.2c0.1,0,0.1,0.1,0.1,0.1c0,0.1,0,0.1-0.1,0.1c-0.1,0-0.1-0.1-0.1-0.1  C30.6,62.2,30.7,62.2,30.7,62.2z"></path>	<path id="XMLID_219_" class="st0" d="M34.5,62.4c0.1,0,0.2-0.1,0.2-0.2c0-0.1-0.1-0.2-0.2-0.2c-0.1,0-0.2,0.1-0.2,0.2  C34.3,62.4,34.4,62.4,34.5,62.4z M34.5,62.1c0.1,0,0.1,0,0.1,0.1c0,0.1,0,0.1-0.1,0.1c-0.1,0-0.1,0-0.1-0.1  C34.4,62.2,34.4,62.1,34.5,62.1z"></path>	<path id="XMLID_216_" class="st0" d="M35.3,59.5c-0.2,0.2-0.3,0.6-0.1,0.9c0.2,0.3,0.5,0.4,0.8,0.1c0.2-0.2,0.3-0.6,0.1-0.9  C35.9,59.4,35.6,59.3,35.3,59.5z M35.8,60.3c-0.1,0.1-0.3,0.1-0.3-0.1c-0.1-0.1-0.1-0.3,0-0.4c0.1-0.1,0.3-0.1,0.3,0.1  C35.9,60,35.9,60.2,35.8,60.3z"></path>	<path id="XMLID_213_" class="st0" d="M29.3,59.4C29,59.6,28.9,60,29,60.4c0.1,0.4,0.5,0.5,0.8,0.3c0.3-0.2,0.4-0.6,0.3-0.9  C29.9,59.4,29.6,59.2,29.3,59.4z M29.6,60.3c-0.1,0.1-0.3,0-0.3-0.1c-0.1-0.2,0-0.4,0.1-0.4c0.1-0.1,0.3,0,0.3,0.1  C29.8,60.1,29.8,60.3,29.6,60.3z"></path>	<path id="XMLID_210_" class="st0" d="M31,14.9c-0.2,0.4-0.2,0.8,0,1.1c0.2,0.6,0.8,0.9,1.4,0.9c0.2,0,0.4,0,0.6-0.1  c0.4-0.2,0.7-0.4,0.8-0.8c0.2-0.4,0.2-0.8,0-1.1c-0.3-0.8-1.2-1.1-1.9-0.8C31.5,14.2,31.2,14.5,31,14.9z M32,14.4  c0.1-0.1,0.3-0.1,0.4-0.1c0.1,0,0.3,0,0.4,0.1c0.3,0.1,0.5,0.3,0.6,0.6c0.1,0.3,0.1,0.6,0,0.9c-0.1,0.3-0.3,0.5-0.6,0.6  c-0.3,0.1-0.6,0.1-0.9,0c-0.3-0.1-0.5-0.3-0.6-0.6c-0.1-0.3-0.1-0.6,0-0.9C31.5,14.7,31.7,14.5,32,14.4z"></path></g><g id="XMLID_192_">	<path id="XMLID_207_" class="st0" d="M70.7,44c0,0.1,0,0.2-0.1,0.3c-0.1,0.1-0.2,0.2-0.4,0.2c-0.2,0.1-0.4,0.1-0.7,0.1  c-0.3,0-0.6,0-1,0c-0.4,0-0.8,0-1,0c-0.3,0-0.5-0.1-0.7-0.1c-0.2-0.1-0.3-0.1-0.4-0.2c-0.1-0.1-0.1-0.2-0.1-0.3V24  c0-0.1,0-0.2,0.1-0.3c0.1-0.1,0.2-0.2,0.4-0.2c0.2-0.1,0.4-0.1,0.7-0.1c0.3,0,0.6,0,1,0c0.4,0,0.8,0,1,0c0.3,0,0.5,0.1,0.7,0.1  c0.2,0.1,0.3,0.1,0.4,0.2c0.1,0.1,0.1,0.2,0.1,0.3V44z"></path>	<path id="XMLID_205_" class="st0" d="M88.3,38.2c0,1.1-0.2,2.1-0.6,2.9c-0.4,0.8-1,1.5-1.7,2.1c-0.7,0.6-1.5,1-2.5,1.3  c-1,0.3-2,0.4-3,0.4c-0.7,0-1.4-0.1-2-0.2c-0.6-0.1-1.2-0.3-1.7-0.4c-0.5-0.2-0.9-0.3-1.2-0.5c-0.3-0.2-0.6-0.3-0.7-0.5  c-0.1-0.1-0.2-0.3-0.3-0.6c-0.1-0.3-0.1-0.7-0.1-1.2c0-0.3,0-0.6,0-0.9c0-0.2,0.1-0.4,0.1-0.6c0-0.1,0.1-0.2,0.2-0.3  c0.1-0.1,0.2-0.1,0.3-0.1c0.2,0,0.4,0.1,0.6,0.3c0.3,0.2,0.6,0.4,1.1,0.6c0.4,0.2,1,0.4,1.6,0.6c0.6,0.2,1.3,0.3,2.1,0.3  c0.5,0,1-0.1,1.4-0.2c0.4-0.1,0.8-0.3,1.1-0.5c0.3-0.2,0.5-0.5,0.7-0.9c0.2-0.3,0.2-0.7,0.2-1.1c0-0.5-0.1-0.9-0.4-1.2  c-0.3-0.3-0.6-0.7-1-0.9c-0.4-0.3-0.9-0.5-1.4-0.8c-0.5-0.2-1.1-0.5-1.7-0.7c-0.6-0.3-1.1-0.6-1.7-0.9c-0.5-0.3-1-0.7-1.4-1.2  c-0.4-0.5-0.8-1-1-1.6c-0.3-0.6-0.4-1.4-0.4-2.3c0-1,0.2-1.9,0.6-2.7c0.4-0.8,0.9-1.4,1.5-1.9c0.6-0.5,1.4-0.9,2.3-1.1  c0.9-0.3,1.8-0.4,2.8-0.4c0.5,0,1,0,1.5,0.1c0.5,0.1,1,0.2,1.4,0.3c0.4,0.1,0.8,0.3,1.2,0.4c0.3,0.2,0.6,0.3,0.7,0.4  c0.1,0.1,0.2,0.2,0.2,0.3c0,0.1,0.1,0.2,0.1,0.3c0,0.1,0,0.3,0.1,0.5c0,0.2,0,0.4,0,0.7c0,0.3,0,0.6,0,0.8c0,0.2,0,0.4-0.1,0.5  c0,0.1-0.1,0.2-0.2,0.3c-0.1,0.1-0.2,0.1-0.3,0.1c-0.1,0-0.3-0.1-0.6-0.2c-0.3-0.2-0.6-0.3-1-0.5c-0.4-0.2-0.8-0.3-1.3-0.5  c-0.5-0.1-1.1-0.2-1.7-0.2c-0.5,0-0.9,0.1-1.2,0.2c-0.3,0.1-0.6,0.3-0.9,0.5c-0.2,0.2-0.4,0.4-0.5,0.7c-0.1,0.3-0.2,0.6-0.2,0.9  c0,0.5,0.1,0.9,0.4,1.2c0.3,0.3,0.6,0.7,1,0.9c0.4,0.3,0.9,0.5,1.5,0.8c0.5,0.2,1.1,0.5,1.7,0.7c0.6,0.3,1.1,0.6,1.7,0.9  c0.5,0.3,1,0.7,1.5,1.2c0.4,0.5,0.8,1,1,1.6C88.2,36.6,88.3,37.4,88.3,38.2z"></path>	<path id="XMLID_202_" class="st0" d="M111,33.7c0,1.8-0.2,3.3-0.7,4.7c-0.4,1.4-1.1,2.6-2,3.5c-0.9,1-1.9,1.7-3.2,2.2  c-1.3,0.5-2.7,0.8-4.4,0.8c-1.7,0-3.1-0.2-4.3-0.6c-1.2-0.4-2.3-1.1-3.1-2c-0.8-0.9-1.4-2-1.8-3.4c-0.4-1.4-0.6-3-0.6-4.9  c0-1.7,0.2-3.3,0.7-4.6c0.4-1.4,1.1-2.5,2-3.5c0.9-1,1.9-1.7,3.2-2.2c1.3-0.5,2.8-0.8,4.4-0.8c1.6,0,3,0.2,4.3,0.6  c1.2,0.4,2.3,1.1,3.1,2c0.8,0.9,1.4,2,1.9,3.4C110.8,30.3,111,31.9,111,33.7z M106.5,34c0-1.1-0.1-2.1-0.3-3  c-0.2-0.9-0.5-1.7-0.9-2.3c-0.4-0.7-1-1.2-1.7-1.5c-0.7-0.4-1.6-0.5-2.6-0.5c-1.1,0-1.9,0.2-2.7,0.6c-0.7,0.4-1.3,0.9-1.7,1.6  c-0.4,0.7-0.7,1.4-0.9,2.3c-0.2,0.9-0.3,1.8-0.3,2.8c0,1.2,0.1,2.2,0.3,3.1c0.2,0.9,0.5,1.7,0.9,2.4c0.4,0.7,1,1.2,1.7,1.5  c0.7,0.3,1.6,0.5,2.6,0.5c1.1,0,1.9-0.2,2.7-0.6c0.7-0.4,1.3-0.9,1.7-1.6c0.4-0.7,0.7-1.5,0.9-2.4C106.4,35.9,106.5,35,106.5,34z"></path>	<path id="XMLID_200_" class="st0" d="M129.6,41.4c0,0.3,0,0.5,0,0.7c0,0.2,0,0.4-0.1,0.5c0,0.1-0.1,0.3-0.1,0.4  c-0.1,0.1-0.1,0.2-0.3,0.3c-0.1,0.1-0.4,0.3-0.7,0.5c-0.3,0.2-0.8,0.4-1.3,0.6c-0.5,0.2-1.1,0.3-1.7,0.5c-0.6,0.1-1.3,0.2-2.1,0.2  c-1.5,0-2.8-0.2-3.9-0.7c-1.2-0.4-2.2-1.1-3-2c-0.8-0.9-1.4-2-1.9-3.3c-0.4-1.3-0.7-2.9-0.7-4.7c0-1.8,0.2-3.4,0.7-4.8  c0.5-1.4,1.2-2.6,2-3.5c0.9-1,1.9-1.7,3.1-2.2c1.2-0.5,2.5-0.7,4-0.7c0.6,0,1.2,0,1.7,0.1c0.5,0.1,1.1,0.2,1.5,0.4  c0.5,0.2,0.9,0.3,1.3,0.5c0.4,0.2,0.6,0.4,0.8,0.5c0.1,0.1,0.2,0.3,0.3,0.4c0.1,0.1,0.1,0.2,0.1,0.4c0,0.2,0.1,0.3,0.1,0.5  c0,0.2,0,0.5,0,0.8c0,0.3,0,0.6,0,0.8c0,0.2-0.1,0.4-0.1,0.6c-0.1,0.1-0.1,0.2-0.2,0.3c-0.1,0.1-0.2,0.1-0.3,0.1  c-0.2,0-0.4-0.1-0.6-0.3c-0.3-0.2-0.6-0.4-1-0.6c-0.4-0.2-0.9-0.4-1.4-0.6c-0.6-0.2-1.2-0.3-2-0.3c-0.8,0-1.6,0.2-2.3,0.5  c-0.7,0.3-1.2,0.8-1.7,1.5c-0.5,0.6-0.8,1.4-1.1,2.3c-0.2,0.9-0.4,1.9-0.4,3.1c0,1.2,0.1,2.3,0.4,3.2c0.3,0.9,0.6,1.7,1.1,2.3  c0.5,0.6,1,1,1.7,1.3c0.7,0.3,1.4,0.4,2.3,0.4c0.8,0,1.4-0.1,2-0.3c0.6-0.2,1-0.4,1.4-0.6c0.4-0.2,0.7-0.4,1-0.6  c0.3-0.2,0.5-0.3,0.6-0.3c0.1,0,0.2,0,0.3,0.1c0.1,0,0.1,0.1,0.2,0.3c0,0.1,0.1,0.3,0.1,0.5C129.6,40.7,129.6,41,129.6,41.4z"></path>	<path id="XMLID_198_" class="st0" d="M145.6,42.9c0,0.3,0,0.6,0,0.8c0,0.2-0.1,0.4-0.1,0.5c-0.1,0.1-0.1,0.2-0.2,0.3  c-0.1,0.1-0.2,0.1-0.3,0.1h-10.7c-0.4,0-0.7-0.1-0.9-0.3c-0.2-0.2-0.4-0.6-0.4-1V24.7c0-0.5,0.1-0.8,0.4-1c0.2-0.2,0.5-0.3,0.9-0.3  h10.6c0.1,0,0.2,0,0.3,0.1c0.1,0.1,0.1,0.2,0.2,0.3c0.1,0.1,0.1,0.3,0.1,0.5c0,0.2,0,0.5,0,0.8c0,0.3,0,0.6,0,0.8  c0,0.2-0.1,0.4-0.1,0.5c-0.1,0.1-0.1,0.2-0.2,0.3c-0.1,0.1-0.2,0.1-0.3,0.1h-7.6v5.2h6.4c0.1,0,0.2,0,0.3,0.1  c0.1,0.1,0.2,0.2,0.2,0.3c0.1,0.1,0.1,0.3,0.1,0.5c0,0.2,0,0.5,0,0.8c0,0.3,0,0.6,0,0.8c0,0.2-0.1,0.4-0.1,0.5  c-0.1,0.1-0.1,0.2-0.2,0.3c-0.1,0.1-0.2,0.1-0.3,0.1h-6.4v6h7.6c0.1,0,0.2,0,0.3,0.1c0.1,0.1,0.2,0.2,0.2,0.3  c0.1,0.1,0.1,0.3,0.1,0.5C145.6,42.3,145.6,42.6,145.6,42.9z"></path>	<path id="XMLID_195_" class="st0" d="M165.5,44c0,0.1,0,0.2-0.1,0.3c0,0.1-0.1,0.2-0.3,0.2c-0.2,0.1-0.4,0.1-0.7,0.1  c-0.3,0-0.7,0-1.3,0c-0.5,0-0.8,0-1.1,0c-0.3,0-0.5-0.1-0.6-0.1c-0.2-0.1-0.3-0.1-0.3-0.2c-0.1-0.1-0.1-0.2-0.2-0.3l-1.9-4.7  c-0.2-0.5-0.5-1-0.7-1.4c-0.2-0.4-0.5-0.8-0.7-1c-0.3-0.3-0.6-0.5-0.9-0.6c-0.3-0.1-0.8-0.2-1.2-0.2h-1.3V44c0,0.1,0,0.2-0.1,0.3  c-0.1,0.1-0.2,0.2-0.4,0.2c-0.2,0.1-0.4,0.1-0.7,0.1c-0.3,0-0.6,0-1,0c-0.4,0-0.8,0-1,0c-0.3,0-0.5-0.1-0.7-0.1  c-0.2-0.1-0.3-0.1-0.3-0.2c-0.1-0.1-0.1-0.2-0.1-0.3V24.7c0-0.5,0.1-0.8,0.4-1c0.2-0.2,0.5-0.3,0.9-0.3h5.5c0.6,0,1,0,1.4,0  c0.4,0,0.7,0,1,0.1c0.9,0.1,1.6,0.3,2.3,0.6c0.7,0.3,1.3,0.7,1.7,1.2c0.5,0.5,0.8,1,1.1,1.7c0.3,0.7,0.4,1.4,0.4,2.2  c0,0.7-0.1,1.4-0.3,1.9c-0.2,0.6-0.4,1.1-0.8,1.6c-0.3,0.5-0.8,0.9-1.3,1.2c-0.5,0.3-1.1,0.6-1.8,0.8c0.3,0.2,0.6,0.3,0.9,0.6  c0.3,0.2,0.5,0.5,0.8,0.8c0.2,0.3,0.5,0.7,0.7,1.1c0.2,0.4,0.4,0.8,0.6,1.4l1.8,4.2c0.2,0.4,0.3,0.7,0.3,0.9  C165.5,43.8,165.5,43.9,165.5,44z M160,29.6c0-0.7-0.2-1.3-0.5-1.8c-0.3-0.5-0.8-0.8-1.6-1c-0.2-0.1-0.5-0.1-0.7-0.1  c-0.3,0-0.7,0-1.2,0h-1.9v6h2.2c0.6,0,1.1-0.1,1.6-0.2c0.5-0.1,0.8-0.4,1.1-0.6c0.3-0.3,0.5-0.6,0.7-1  C159.9,30.5,160,30.1,160,29.6z"></path>	<path id="XMLID_193_" class="st0" d="M182.8,25.1c0,0.3,0,0.6,0,0.8c0,0.2-0.1,0.4-0.1,0.5c-0.1,0.1-0.1,0.2-0.2,0.3  c-0.1,0.1-0.2,0.1-0.3,0.1h-5.3V44c0,0.1,0,0.2-0.1,0.3c-0.1,0.1-0.2,0.2-0.4,0.2c-0.2,0.1-0.4,0.1-0.7,0.1c-0.3,0-0.6,0-1,0  c-0.4,0-0.8,0-1,0c-0.3,0-0.5-0.1-0.7-0.1c-0.2-0.1-0.3-0.1-0.4-0.2c-0.1-0.1-0.1-0.2-0.1-0.3V26.9h-5.3c-0.1,0-0.2,0-0.3-0.1  c-0.1-0.1-0.1-0.2-0.2-0.3c-0.1-0.1-0.1-0.3-0.1-0.5c0-0.2,0-0.5,0-0.8c0-0.3,0-0.6,0-0.8c0-0.2,0.1-0.4,0.1-0.5  c0.1-0.1,0.1-0.2,0.2-0.3c0.1-0.1,0.2-0.1,0.3-0.1h15c0.1,0,0.2,0,0.3,0.1c0.1,0.1,0.2,0.2,0.2,0.3c0.1,0.1,0.1,0.3,0.1,0.5  C182.8,24.5,182.8,24.8,182.8,25.1z"></path></g><g id="XMLID_384_">	<path id="XMLID_22703_" class="st0" d="M73.4,54.7c-0.1,0-0.2,0-0.3-0.1c-0.1,0-0.3,0-0.5,0c-0.2,0-0.4,0-0.5,0  c-0.1,0-0.2,0-0.3,0.1c-0.1,0-0.1,0.1-0.2,0.1c0,0,0,0.1,0,0.1v3.5h-3.6v-3.5c0,0,0-0.1,0-0.1c0,0-0.1-0.1-0.2-0.1  c-0.1,0-0.2,0-0.3-0.1c-0.1,0-0.3,0-0.5,0c-0.2,0-0.3,0-0.5,0c-0.1,0-0.2,0-0.3,0.1c-0.1,0-0.1,0.1-0.2,0.1c0,0,0,0.1,0,0.1V64  c0,0,0,0.1,0,0.1c0,0,0.1,0.1,0.2,0.1c0.1,0,0.2,0,0.3,0.1c0.1,0,0.3,0,0.5,0c0.2,0,0.4,0,0.5,0c0.1,0,0.2,0,0.3-0.1  c0.1,0,0.1-0.1,0.2-0.1c0,0,0-0.1,0-0.1v-3.9h3.6V64c0,0,0,0.1,0,0.1c0,0,0.1,0.1,0.2,0.1c0.1,0,0.2,0,0.3,0.1c0.1,0,0.3,0,0.5,0  c0.2,0,0.3,0,0.5,0c0.1,0,0.2,0,0.3-0.1c0.1,0,0.1-0.1,0.2-0.1c0,0,0-0.1,0-0.1v-9.1c0,0,0-0.1,0-0.1  C73.6,54.8,73.5,54.7,73.4,54.7z"></path>	<path id="XMLID_22700_" class="st0" d="M80.4,57.6c-0.2-0.2-0.5-0.4-0.9-0.5C79.2,57,78.7,57,78.2,57c-0.3,0-0.6,0-0.9,0.1  c-0.3,0-0.5,0.1-0.8,0.2c-0.2,0.1-0.4,0.2-0.6,0.2c-0.2,0.1-0.3,0.2-0.4,0.2c-0.1,0.1-0.1,0.2-0.1,0.2c0,0.1,0,0.2,0,0.4  c0,0.1,0,0.2,0,0.3c0,0.1,0,0.2,0.1,0.2c0,0.1,0.1,0.1,0.1,0.1c0,0,0.1,0.1,0.1,0.1c0.1,0,0.2,0,0.3-0.1c0.1-0.1,0.3-0.1,0.5-0.2  c0.2-0.1,0.4-0.2,0.7-0.2c0.2-0.1,0.5-0.1,0.8-0.1c0.2,0,0.4,0,0.6,0.1c0.2,0,0.3,0.1,0.4,0.2c0.1,0.1,0.2,0.2,0.2,0.4  c0,0.2,0.1,0.3,0.1,0.5v0.4h-0.6c-0.6,0-1.1,0-1.6,0.1c-0.4,0.1-0.8,0.2-1.1,0.4c-0.3,0.2-0.5,0.4-0.7,0.7c-0.2,0.3-0.2,0.6-0.2,1  c0,0.4,0.1,0.7,0.2,0.9c0.1,0.3,0.3,0.5,0.5,0.7c0.2,0.2,0.5,0.3,0.8,0.4c0.3,0.1,0.6,0.1,1,0.1c0.4,0,0.8-0.1,1.2-0.2  c0.3-0.2,0.7-0.4,0.9-0.7v0.5c0,0.1,0,0.1,0.1,0.2c0,0,0.1,0.1,0.2,0.1c0.1,0,0.3,0,0.5,0c0.2,0,0.4,0,0.5,0c0.1,0,0.2,0,0.2-0.1  c0,0,0.1-0.1,0.1-0.2v-4.5c0-0.5-0.1-0.8-0.2-1.2C80.9,58.1,80.7,57.8,80.4,57.6z M79.3,62.4c-0.2,0.3-0.5,0.5-0.7,0.6  c-0.2,0.1-0.5,0.2-0.7,0.2c-0.3,0-0.6-0.1-0.7-0.2c-0.2-0.2-0.3-0.4-0.3-0.7c0-0.2,0-0.3,0.1-0.4c0.1-0.1,0.2-0.2,0.3-0.3  c0.1-0.1,0.3-0.2,0.5-0.2c0.2,0,0.5-0.1,0.8-0.1h0.7V62.4z"></path>	<path id="XMLID_22699_" class="st0" d="M76.1,54.1c0,0,0,0.1,0.1,0.2l1.4,1.7c0,0,0.1,0.1,0.1,0.1c0,0,0.1,0.1,0.2,0.1  c0.1,0,0.1,0,0.2,0c0.1,0,0.2,0,0.4,0c0.2,0,0.3,0,0.4,0c0.1,0,0.2,0,0.2-0.1c0,0,0.1-0.1,0-0.1c0,0,0-0.1-0.1-0.2L78,54.2  c0-0.1-0.1-0.1-0.1-0.1c0,0-0.1-0.1-0.2-0.1c-0.1,0-0.2,0-0.3,0c-0.1,0-0.2,0-0.4,0c-0.2,0-0.4,0-0.5,0c-0.1,0-0.2,0-0.3,0.1  C76.1,54,76.1,54.1,76.1,54.1z"></path>	<path id="XMLID_22698_" class="st0" d="M84.5,57.2c-0.1,0-0.2,0-0.3-0.1c-0.1,0-0.3,0-0.5,0c-0.2,0-0.3,0-0.5,0  c-0.1,0-0.2,0-0.3,0.1c-0.1,0-0.1,0.1-0.2,0.1c0,0,0,0.1,0,0.1V64c0,0,0,0.1,0,0.1c0,0,0.1,0.1,0.2,0.1c0.1,0,0.2,0,0.3,0.1  c0.1,0,0.3,0,0.5,0c0.2,0,0.3,0,0.5,0c0.1,0,0.2,0,0.3-0.1c0.1,0,0.1-0.1,0.2-0.1c0,0,0-0.1,0-0.1v-6.6c0,0,0-0.1,0-0.1  C84.6,57.3,84.6,57.2,84.5,57.2z"></path>	<path id="XMLID_22697_" class="st0" d="M83.8,54.2c-0.4,0-0.7,0.1-0.9,0.2c-0.2,0.1-0.2,0.4-0.2,0.8c0,0.4,0.1,0.6,0.2,0.8  c0.1,0.1,0.4,0.2,0.9,0.2c0.4,0,0.7-0.1,0.9-0.2c0.2-0.1,0.2-0.4,0.2-0.8c0-0.4-0.1-0.6-0.2-0.8C84.5,54.3,84.2,54.2,83.8,54.2z"></path>	<path id="XMLID_22696_" class="st0" d="M97.1,54.7c-0.1,0-0.2,0-0.3-0.1c-0.1,0-0.3,0-0.5,0c-0.2,0-0.4,0-0.5,0  c-0.1,0-0.2,0-0.3,0.1c-0.1,0-0.1,0.1-0.2,0.1c0,0,0,0.1,0,0.1v3.5h-3.6v-3.5c0,0,0-0.1,0-0.1c0,0-0.1-0.1-0.2-0.1  c-0.1,0-0.2,0-0.3-0.1c-0.1,0-0.3,0-0.5,0c-0.2,0-0.3,0-0.5,0c-0.1,0-0.2,0-0.3,0.1c-0.1,0-0.1,0.1-0.2,0.1c0,0,0,0.1,0,0.1V64  c0,0,0,0.1,0,0.1c0,0,0.1,0.1,0.2,0.1c0.1,0,0.2,0,0.3,0.1c0.1,0,0.3,0,0.5,0c0.2,0,0.4,0,0.5,0c0.1,0,0.2,0,0.3-0.1  c0.1,0,0.1-0.1,0.2-0.1c0,0,0-0.1,0-0.1v-3.9h3.6V64c0,0,0,0.1,0,0.1c0,0,0.1,0.1,0.2,0.1c0.1,0,0.2,0,0.3,0.1c0.1,0,0.3,0,0.5,0  c0.2,0,0.3,0,0.5,0c0.1,0,0.2,0,0.3-0.1c0.1,0,0.1-0.1,0.2-0.1c0,0,0-0.1,0-0.1v-9.1c0,0,0-0.1,0-0.1  C97.3,54.8,97.2,54.7,97.1,54.7z"></path>	<path id="XMLID_22695_" class="st0" d="M101.9,54c0,0-0.1-0.1-0.2-0.1c-0.1,0-0.2,0-0.3,0c-0.1,0-0.2,0-0.4,0c-0.2,0-0.4,0-0.5,0  c-0.1,0-0.2,0-0.3,0.1c-0.1,0-0.1,0.1-0.1,0.1c0,0,0,0.1,0.1,0.2l1.4,1.7c0,0,0.1,0.1,0.1,0.1c0,0,0.1,0.1,0.2,0.1  c0.1,0,0.1,0,0.2,0c0.1,0,0.2,0,0.4,0c0.2,0,0.3,0,0.4,0c0.1,0,0.2,0,0.2-0.1c0,0,0.1-0.1,0-0.1c0,0,0-0.1-0.1-0.2l-1.1-1.7  C102,54.1,102,54.1,101.9,54z"></path>	<path id="XMLID_22692_" class="st0" d="M105,57.9c-0.3-0.3-0.6-0.5-1.1-0.7c-0.4-0.2-1-0.2-1.5-0.2c-0.6,0-1.1,0.1-1.6,0.3  c-0.5,0.2-0.8,0.4-1.1,0.8c-0.3,0.3-0.5,0.7-0.7,1.2c-0.2,0.5-0.2,1-0.2,1.5c0,0.6,0.1,1.1,0.2,1.6c0.1,0.5,0.4,0.8,0.6,1.2  c0.3,0.3,0.6,0.6,1.1,0.7c0.4,0.2,0.9,0.2,1.5,0.2c0.6,0,1.1-0.1,1.6-0.3c0.5-0.2,0.8-0.4,1.1-0.8c0.3-0.3,0.5-0.7,0.7-1.2  s0.2-1,0.2-1.5c0-0.6-0.1-1.1-0.2-1.6C105.5,58.6,105.3,58.3,105,57.9z M103.8,61.7c-0.1,0.3-0.2,0.5-0.3,0.7  c-0.1,0.2-0.3,0.3-0.5,0.4c-0.2,0.1-0.5,0.2-0.7,0.2c-0.3,0-0.6-0.1-0.8-0.2c-0.2-0.1-0.4-0.3-0.5-0.5c-0.1-0.2-0.2-0.4-0.3-0.7  c-0.1-0.3-0.1-0.6-0.1-0.9c0-0.4,0-0.7,0.1-0.9c0.1-0.3,0.2-0.5,0.3-0.7c0.1-0.2,0.3-0.3,0.5-0.4c0.2-0.1,0.5-0.2,0.7-0.2  c0.3,0,0.6,0.1,0.8,0.2c0.2,0.1,0.4,0.3,0.5,0.5c0.1,0.2,0.2,0.4,0.3,0.7c0.1,0.3,0.1,0.6,0.1,0.9  C103.9,61.1,103.9,61.4,103.8,61.7z"></path>	<path id="XMLID_22689_" class="st0" d="M112.2,57.6c-0.2-0.2-0.5-0.4-0.9-0.5c-0.4-0.1-0.8-0.2-1.3-0.2c-0.3,0-0.6,0-0.9,0.1  c-0.3,0-0.5,0.1-0.8,0.2c-0.2,0.1-0.4,0.2-0.6,0.2c-0.2,0.1-0.3,0.2-0.4,0.2c-0.1,0.1-0.1,0.2-0.1,0.2c0,0.1,0,0.2,0,0.4  c0,0.1,0,0.2,0,0.3c0,0.1,0,0.2,0.1,0.2c0,0.1,0.1,0.1,0.1,0.1c0,0,0.1,0.1,0.1,0.1c0.1,0,0.2,0,0.3-0.1c0.1-0.1,0.3-0.1,0.5-0.2  c0.2-0.1,0.4-0.2,0.7-0.2c0.2-0.1,0.5-0.1,0.8-0.1c0.2,0,0.4,0,0.6,0.1c0.2,0,0.3,0.1,0.4,0.2c0.1,0.1,0.2,0.2,0.2,0.4  c0,0.2,0.1,0.3,0.1,0.5v0.4h-0.6c-0.6,0-1.1,0-1.6,0.1c-0.4,0.1-0.8,0.2-1.1,0.4c-0.3,0.2-0.5,0.4-0.7,0.7c-0.2,0.3-0.2,0.6-0.2,1  c0,0.4,0.1,0.7,0.2,0.9c0.1,0.3,0.3,0.5,0.5,0.7c0.2,0.2,0.5,0.3,0.8,0.4c0.3,0.1,0.6,0.1,1,0.1c0.4,0,0.8-0.1,1.2-0.2  c0.3-0.2,0.7-0.4,0.9-0.7v0.5c0,0.1,0,0.1,0.1,0.2c0,0,0.1,0.1,0.2,0.1c0.1,0,0.3,0,0.5,0c0.2,0,0.4,0,0.5,0c0.1,0,0.2,0,0.2-0.1  c0,0,0.1-0.1,0.1-0.2v-4.5c0-0.5-0.1-0.8-0.2-1.2C112.6,58.1,112.4,57.8,112.2,57.6z M111,62.4c-0.2,0.3-0.5,0.5-0.7,0.6  c-0.2,0.1-0.5,0.2-0.7,0.2c-0.3,0-0.6-0.1-0.7-0.2c-0.2-0.2-0.3-0.4-0.3-0.7c0-0.2,0-0.3,0.1-0.4c0.1-0.1,0.2-0.2,0.3-0.3  c0.1-0.1,0.3-0.2,0.5-0.2c0.2,0,0.5-0.1,0.8-0.1h0.7V62.4z"></path>	<path id="XMLID_22688_" class="st0" d="M124.5,62.2c0-0.1,0-0.1-0.1-0.1c0,0-0.1,0-0.1,0c-0.1,0-0.2,0-0.3,0.1  c-0.1,0.1-0.3,0.2-0.4,0.3c-0.2,0.1-0.4,0.2-0.7,0.3c-0.3,0.1-0.6,0.1-0.9,0.1c-0.4,0-0.7-0.1-1-0.2c-0.3-0.1-0.6-0.3-0.8-0.6  c-0.2-0.3-0.4-0.6-0.5-1c-0.1-0.4-0.2-0.9-0.2-1.5c0-0.5,0.1-1,0.2-1.4c0.1-0.4,0.3-0.8,0.5-1.1c0.2-0.3,0.5-0.5,0.8-0.7  c0.3-0.2,0.6-0.2,1-0.2c0.3,0,0.6,0,0.9,0.1c0.3,0.1,0.5,0.2,0.6,0.3c0.2,0.1,0.3,0.2,0.4,0.3c0.1,0.1,0.2,0.1,0.3,0.1  c0,0,0.1,0,0.1,0c0,0,0.1-0.1,0.1-0.1c0-0.1,0-0.1,0.1-0.3c0-0.1,0-0.2,0-0.4c0-0.1,0-0.3,0-0.3c0-0.1,0-0.2,0-0.2  c0-0.1,0-0.1-0.1-0.2c0,0-0.1-0.1-0.1-0.2c-0.1-0.1-0.2-0.1-0.4-0.2c-0.2-0.1-0.4-0.2-0.6-0.2c-0.2-0.1-0.4-0.1-0.7-0.2  c-0.2,0-0.5-0.1-0.8-0.1c-0.7,0-1.3,0.1-1.8,0.3c-0.5,0.2-1,0.6-1.4,1c-0.4,0.4-0.7,1-0.9,1.6c-0.2,0.6-0.3,1.4-0.3,2.2  c0,0.8,0.1,1.5,0.3,2.1c0.2,0.6,0.5,1.1,0.9,1.5c0.4,0.4,0.8,0.7,1.4,0.9c0.5,0.2,1.1,0.3,1.8,0.3c0.3,0,0.7,0,0.9-0.1  c0.3-0.1,0.5-0.1,0.8-0.2c0.2-0.1,0.4-0.2,0.6-0.3c0.2-0.1,0.3-0.2,0.3-0.2c0.1-0.1,0.1-0.1,0.1-0.2c0,0,0-0.1,0.1-0.2  c0-0.1,0-0.1,0-0.2c0-0.1,0-0.2,0-0.3c0-0.2,0-0.3,0-0.4C124.6,62.3,124.6,62.2,124.5,62.2z"></path>	<path id="XMLID_22687_" class="st0" d="M131.8,57.2c-0.1,0-0.2,0-0.3-0.1c-0.1,0-0.3,0-0.5,0c-0.2,0-0.3,0-0.5,0  c-0.1,0-0.2,0-0.3,0.1c-0.1,0-0.1,0.1-0.1,0.1c0,0,0,0.1,0,0.1v4.4c-0.3,0.3-0.5,0.6-0.8,0.8c-0.2,0.2-0.5,0.3-0.7,0.3  c-0.2,0-0.4,0-0.5-0.1c-0.1-0.1-0.3-0.2-0.3-0.3c-0.1-0.1-0.2-0.3-0.2-0.5c0-0.2-0.1-0.4-0.1-0.8v-3.7c0,0,0-0.1,0-0.1  c0,0-0.1-0.1-0.2-0.1c-0.1,0-0.2,0-0.3-0.1c-0.1,0-0.3,0-0.5,0c-0.2,0-0.3,0-0.4,0c-0.1,0-0.2,0-0.3,0.1c-0.1,0-0.1,0.1-0.1,0.1  c0,0,0,0.1,0,0.1v4.1c0,0.5,0,0.9,0.1,1.3c0.1,0.3,0.2,0.6,0.4,0.9c0.2,0.3,0.4,0.5,0.8,0.6c0.3,0.1,0.7,0.2,1.1,0.2  c0.4,0,0.8-0.1,1.2-0.3c0.4-0.2,0.8-0.5,1.1-0.9V64c0,0,0,0.1,0,0.1c0,0,0.1,0.1,0.1,0.1c0.1,0,0.1,0,0.2,0.1c0.1,0,0.2,0,0.4,0  c0.2,0,0.3,0,0.4,0c0.1,0,0.2,0,0.2-0.1c0.1,0,0.1-0.1,0.1-0.1c0,0,0-0.1,0-0.1v-6.6c0,0,0-0.1,0-0.1  C132,57.2,131.9,57.2,131.8,57.2z"></path>	<path id="XMLID_22686_" class="st0" d="M128.2,56.1c0,0,0.1,0.1,0.2,0.1c0.1,0,0.1,0,0.2,0c0.1,0,0.2,0,0.4,0c0.2,0,0.3,0,0.4,0  c0.1,0,0.2,0,0.2-0.1c0,0,0.1-0.1,0-0.1c0,0,0-0.1-0.1-0.2l-1.1-1.7c0-0.1-0.1-0.1-0.1-0.1c0,0-0.1-0.1-0.2-0.1c-0.1,0-0.2,0-0.3,0  c-0.1,0-0.2,0-0.4,0c-0.2,0-0.4,0-0.5,0c-0.1,0-0.2,0-0.3,0.1c-0.1,0-0.1,0.1-0.1,0.1c0,0,0,0.1,0.1,0.2l1.4,1.7  C128.1,56,128.1,56.1,128.2,56.1z"></path>	<path id="XMLID_22685_" class="st0" d="M139.6,57.8c-0.2-0.3-0.4-0.5-0.8-0.6c-0.3-0.1-0.7-0.2-1.1-0.2c-0.4,0-0.8,0.1-1.2,0.3  c-0.4,0.2-0.8,0.5-1.1,0.9v-0.8c0,0,0-0.1,0-0.1c0,0-0.1-0.1-0.1-0.1c-0.1,0-0.1,0-0.2-0.1c-0.1,0-0.2,0-0.4,0c-0.2,0-0.3,0-0.4,0  c-0.1,0-0.2,0-0.2,0.1c-0.1,0-0.1,0.1-0.1,0.1c0,0,0,0.1,0,0.1V64c0,0,0,0.1,0,0.1c0,0,0.1,0.1,0.2,0.1c0.1,0,0.2,0,0.3,0.1  c0.1,0,0.3,0,0.5,0c0.2,0,0.3,0,0.5,0c0.1,0,0.2,0,0.3-0.1c0.1,0,0.1-0.1,0.2-0.1c0,0,0-0.1,0-0.1v-4.4c0.3-0.3,0.5-0.6,0.8-0.8  c0.2-0.2,0.5-0.3,0.7-0.3c0.2,0,0.4,0,0.5,0.1c0.1,0.1,0.3,0.2,0.3,0.3c0.1,0.1,0.2,0.3,0.2,0.5c0,0.2,0.1,0.4,0.1,0.8V64  c0,0,0,0.1,0,0.1c0,0,0.1,0.1,0.1,0.1c0.1,0,0.2,0,0.3,0.1c0.1,0,0.3,0,0.5,0c0.2,0,0.3,0,0.4,0c0.1,0,0.2,0,0.3-0.1  c0.1,0,0.1-0.1,0.1-0.1c0,0,0-0.1,0-0.1v-4.1c0-0.5,0-0.9-0.1-1.2C139.9,58.4,139.7,58.1,139.6,57.8z"></path>	<path id="XMLID_22681_" class="st0" d="M147.5,57.2h-2.1c-0.2,0-0.3-0.1-0.5-0.1c-0.2,0-0.4,0-0.6,0c-0.4,0-0.8,0.1-1.1,0.2  c-0.3,0.1-0.6,0.3-0.9,0.5c-0.2,0.2-0.4,0.5-0.6,0.8c-0.1,0.3-0.2,0.7-0.2,1c0,0.4,0.1,0.7,0.2,0.9c0.1,0.2,0.2,0.5,0.4,0.6  c-0.2,0.2-0.4,0.4-0.5,0.7c-0.1,0.2-0.2,0.5-0.2,0.8c0,0.2,0.1,0.4,0.2,0.6c0.1,0.2,0.3,0.4,0.5,0.5c-0.2,0.1-0.3,0.2-0.4,0.4  c-0.1,0.1-0.2,0.3-0.3,0.4c-0.1,0.1-0.1,0.3-0.2,0.4c0,0.1-0.1,0.3-0.1,0.5c0,0.3,0.1,0.5,0.2,0.7c0.1,0.2,0.3,0.4,0.6,0.6  c0.3,0.2,0.6,0.3,1,0.4c0.4,0.1,0.9,0.1,1.4,0.1c0.6,0,1.1-0.1,1.5-0.2c0.4-0.1,0.8-0.3,1.1-0.5c0.3-0.2,0.5-0.5,0.6-0.8  c0.1-0.3,0.2-0.6,0.2-0.9c0-0.3-0.1-0.6-0.2-0.8c-0.1-0.2-0.3-0.4-0.5-0.6c-0.2-0.2-0.4-0.3-0.7-0.4c-0.3-0.1-0.6-0.1-1-0.2  l-1.6-0.1c-0.2,0-0.4-0.1-0.5-0.2c-0.1-0.1-0.2-0.2-0.2-0.4c0-0.1,0-0.2,0.1-0.3c0-0.1,0.1-0.2,0.2-0.2c0.1,0.1,0.3,0.1,0.4,0.2  c0.2,0.1,0.4,0.1,0.6,0.1c0.4,0,0.8-0.1,1.1-0.2c0.3-0.1,0.6-0.3,0.9-0.5c0.2-0.2,0.4-0.5,0.6-0.8c0.1-0.3,0.2-0.6,0.2-1  c0-0.2,0-0.3-0.1-0.5c0-0.2-0.1-0.3-0.2-0.4h0.8c0.1,0,0.1-0.1,0.2-0.2c0.1-0.1,0.1-0.3,0.1-0.5c0-0.3,0-0.4-0.1-0.6  C147.6,57.2,147.6,57.2,147.5,57.2z M143,64.5c0-0.1,0.1-0.2,0.2-0.2c0.1-0.1,0.2-0.2,0.3-0.3l1.3,0c0.3,0,0.6,0.1,0.7,0.2  c0.2,0.1,0.3,0.3,0.3,0.5c0,0.1,0,0.3-0.1,0.4c0,0.1-0.1,0.2-0.3,0.3c-0.1,0.1-0.3,0.2-0.5,0.2c-0.2,0.1-0.4,0.1-0.7,0.1  c-0.5,0-0.8-0.1-1.1-0.2c-0.3-0.1-0.4-0.3-0.4-0.6c0-0.1,0-0.2,0-0.2C142.9,64.7,142.9,64.6,143,64.5z M145.3,59.9  c0,0.1-0.1,0.3-0.2,0.4c-0.1,0.1-0.2,0.2-0.3,0.2c-0.1,0.1-0.3,0.1-0.5,0.1c-0.4,0-0.6-0.1-0.8-0.3c-0.2-0.2-0.3-0.5-0.3-0.8  c0-0.2,0-0.3,0.1-0.4c0-0.1,0.1-0.3,0.2-0.4c0.1-0.1,0.2-0.2,0.3-0.3c0.1-0.1,0.3-0.1,0.5-0.1c0.4,0,0.6,0.1,0.8,0.3  c0.2,0.2,0.3,0.5,0.3,0.8C145.4,59.6,145.3,59.7,145.3,59.9z"></path>	<path id="XMLID_22680_" class="st0" d="M158.6,54.9c0-0.1-0.1-0.1-0.1-0.1c0,0-0.1,0-0.1,0h-6.8c0,0-0.1,0-0.1,0  c0,0-0.1,0.1-0.1,0.1c0,0.1,0,0.1-0.1,0.2c0,0.1,0,0.2,0,0.4c0,0.1,0,0.3,0,0.4c0,0.1,0,0.2,0.1,0.2c0,0.1,0.1,0.1,0.1,0.1  c0,0,0.1,0,0.1,0h2.4V64c0,0,0,0.1,0,0.1c0,0,0.1,0.1,0.2,0.1c0.1,0,0.2,0,0.3,0.1c0.1,0,0.3,0,0.5,0c0.2,0,0.3,0,0.5,0  c0.1,0,0.2,0,0.3-0.1c0.1,0,0.1-0.1,0.2-0.1c0,0,0-0.1,0-0.1v-7.8h2.4c0,0,0.1,0,0.1,0c0,0,0.1-0.1,0.1-0.1c0-0.1,0-0.1,0.1-0.2  c0-0.1,0-0.2,0-0.4c0-0.1,0-0.3,0-0.4C158.6,55,158.6,54.9,158.6,54.9z"></path>	<path id="XMLID_22679_" class="st0" d="M165.3,57.8c-0.2-0.3-0.4-0.5-0.8-0.6c-0.3-0.1-0.7-0.2-1.1-0.2c-0.4,0-0.7,0.1-1,0.2  c-0.3,0.2-0.7,0.4-1,0.7v-3.7c0,0,0-0.1,0-0.1c0,0-0.1-0.1-0.2-0.1c-0.1,0-0.2,0-0.3-0.1c-0.1,0-0.3,0-0.5,0c-0.2,0-0.3,0-0.5,0  c-0.1,0-0.2,0-0.3,0.1c-0.1,0-0.1,0.1-0.2,0.1c0,0,0,0.1,0,0.1V64c0,0,0,0.1,0,0.1c0,0,0.1,0.1,0.2,0.1c0.1,0,0.2,0,0.3,0.1  c0.1,0,0.3,0,0.5,0c0.2,0,0.3,0,0.5,0c0.1,0,0.2,0,0.3-0.1c0.1,0,0.1-0.1,0.2-0.1c0,0,0-0.1,0-0.1v-4.4c0.3-0.3,0.5-0.6,0.8-0.8  c0.2-0.2,0.5-0.3,0.7-0.3c0.2,0,0.4,0,0.5,0.1c0.1,0.1,0.3,0.2,0.3,0.3c0.1,0.1,0.2,0.3,0.2,0.5c0,0.2,0.1,0.4,0.1,0.8V64  c0,0,0,0.1,0,0.1c0,0,0.1,0.1,0.1,0.1c0.1,0,0.2,0,0.3,0.1c0.1,0,0.3,0,0.5,0c0.2,0,0.3,0,0.4,0c0.1,0,0.2,0,0.3-0.1  c0.1,0,0.1-0.1,0.1-0.1c0,0,0-0.1,0-0.1V60c0-0.5,0-0.9-0.1-1.3C165.6,58.4,165.5,58.1,165.3,57.8z"></path>	<path id="XMLID_22678_" class="st0" d="M168,64.3c0.1,0,0.3,0,0.5,0c0.2,0,0.3,0,0.5,0c0.1,0,0.2,0,0.3-0.1c0.1,0,0.1-0.1,0.2-0.1  c0,0,0-0.1,0-0.1v-6.6c0,0,0-0.1,0-0.1c0,0-0.1-0.1-0.2-0.1c-0.1,0-0.2,0-0.3-0.1c-0.1,0-0.3,0-0.5,0c-0.2,0-0.3,0-0.5,0  c-0.1,0-0.2,0-0.3,0.1c-0.1,0-0.1,0.1-0.2,0.1c0,0,0,0.1,0,0.1V64c0,0,0,0.1,0,0.1c0,0,0.1,0.1,0.2,0.1  C167.8,64.3,167.9,64.3,168,64.3z"></path>	<path id="XMLID_22677_" class="st0" d="M168.5,54.2c-0.4,0-0.7,0.1-0.9,0.2c-0.2,0.1-0.2,0.4-0.2,0.8c0,0.4,0.1,0.6,0.2,0.8  c0.1,0.1,0.4,0.2,0.9,0.2c0.4,0,0.7-0.1,0.9-0.2c0.2-0.1,0.2-0.4,0.2-0.8c0-0.4-0.1-0.6-0.2-0.8C169.2,54.3,168.9,54.2,168.5,54.2z  "></path>	<path id="XMLID_22676_" class="st0" d="M169.3,65.1c-0.1-0.1-0.2-0.1-0.3-0.2c-0.1,0-0.3,0-0.5,0c-0.2,0-0.4,0-0.5,0  c-0.1,0-0.2,0.1-0.3,0.2c-0.1,0.1-0.1,0.2-0.2,0.3c0,0.1-0.1,0.3-0.1,0.4c0,0.2,0,0.3,0,0.4c0,0.1,0.1,0.2,0.2,0.3  c0.1,0.1,0.2,0.1,0.3,0.2c0.1,0,0.3,0,0.5,0c0.2,0,0.4,0,0.5,0c0.1,0,0.2-0.1,0.3-0.2c0.1-0.1,0.1-0.2,0.2-0.3c0-0.1,0-0.3,0-0.4  c0-0.2,0-0.3,0-0.4C169.4,65.3,169.4,65.2,169.3,65.1z"></path>	<path id="XMLID_22675_" class="st0" d="M176.9,57.8c-0.2-0.3-0.4-0.5-0.8-0.6c-0.3-0.1-0.7-0.2-1.1-0.2c-0.4,0-0.8,0.1-1.2,0.3  c-0.4,0.2-0.8,0.5-1.1,0.9v-0.8c0,0,0-0.1,0-0.1c0,0-0.1-0.1-0.1-0.1c-0.1,0-0.1,0-0.2-0.1c-0.1,0-0.2,0-0.4,0c-0.2,0-0.3,0-0.4,0  c-0.1,0-0.2,0-0.2,0.1c-0.1,0-0.1,0.1-0.1,0.1c0,0,0,0.1,0,0.1V64c0,0,0,0.1,0,0.1c0,0,0.1,0.1,0.2,0.1c0.1,0,0.2,0,0.3,0.1  c0.1,0,0.3,0,0.5,0c0.2,0,0.3,0,0.5,0c0.1,0,0.2,0,0.3-0.1c0.1,0,0.1-0.1,0.2-0.1c0,0,0-0.1,0-0.1v-4.4c0.3-0.3,0.5-0.6,0.8-0.8  c0.2-0.2,0.5-0.3,0.7-0.3c0.2,0,0.4,0,0.5,0.1c0.1,0.1,0.3,0.2,0.3,0.3c0.1,0.1,0.2,0.3,0.2,0.5c0,0.2,0.1,0.4,0.1,0.8V64  c0,0,0,0.1,0,0.1c0,0,0.1,0.1,0.1,0.1c0.1,0,0.2,0,0.3,0.1c0.1,0,0.3,0,0.5,0c0.2,0,0.3,0,0.4,0c0.1,0,0.2,0,0.3-0.1  c0.1,0,0.1-0.1,0.1-0.1c0,0,0-0.1,0-0.1v-4.1c0-0.5,0-0.9-0.1-1.2C177.2,58.4,177.1,58.1,176.9,57.8z"></path>	<path id="XMLID_22674_" class="st0" d="M184.9,57.8c-0.2-0.3-0.4-0.5-0.8-0.6c-0.3-0.1-0.7-0.2-1.1-0.2c-0.4,0-0.7,0.1-1,0.2  c-0.3,0.2-0.7,0.4-1,0.7v-3.7c0,0,0-0.1,0-0.1c0,0-0.1-0.1-0.2-0.1c-0.1,0-0.2,0-0.3-0.1c-0.1,0-0.3,0-0.5,0c-0.2,0-0.3,0-0.5,0  c-0.1,0-0.2,0-0.3,0.1c-0.1,0-0.1,0.1-0.2,0.1c0,0,0,0.1,0,0.1V64c0,0,0,0.1,0,0.1c0,0,0.1,0.1,0.2,0.1c0.1,0,0.2,0,0.3,0.1  c0.1,0,0.3,0,0.5,0c0.2,0,0.3,0,0.5,0c0.1,0,0.2,0,0.3-0.1c0.1,0,0.1-0.1,0.2-0.1c0,0,0-0.1,0-0.1v-4.4c0.3-0.3,0.5-0.6,0.8-0.8  c0.2-0.2,0.5-0.3,0.7-0.3c0.2,0,0.4,0,0.5,0.1c0.1,0.1,0.3,0.2,0.3,0.3c0.1,0.1,0.2,0.3,0.2,0.5c0,0.2,0.1,0.4,0.1,0.8V64  c0,0,0,0.1,0,0.1c0,0,0.1,0.1,0.1,0.1c0.1,0,0.2,0,0.3,0.1c0.1,0,0.3,0,0.5,0c0.2,0,0.3,0,0.4,0c0.1,0,0.2,0,0.3-0.1  c0.1,0,0.1-0.1,0.1-0.1c0,0,0-0.1,0-0.1V60c0-0.5,0-0.9-0.1-1.3C185.3,58.4,185.1,58.1,184.9,57.8z"></path>	<path id="XMLID_22673_" class="st0" d="M198,54.7c-0.1,0-0.3,0-0.5,0c-0.2,0-0.4,0-0.6,0c-0.1,0-0.2,0-0.3,0.1  c-0.1,0-0.1,0.1-0.2,0.1c0,0.1-0.1,0.1-0.1,0.2l-2.3,7.4h0l-2.3-7.4c0-0.1-0.1-0.1-0.1-0.2c0,0-0.1-0.1-0.1-0.1  c-0.1,0-0.2,0-0.3-0.1c-0.1,0-0.3,0-0.5,0c-0.3,0-0.5,0-0.6,0c-0.1,0-0.3,0-0.3,0.1s-0.1,0.1-0.1,0.2c0,0.1,0,0.2,0.1,0.4l2.9,8.5  c0,0.1,0,0.1,0.1,0.2c0,0,0.1,0.1,0.1,0.1c0,0,0.1,0.1,0.2,0.1c0.1,0,0.1,0,0.2,0c0.1,0,0.2,0,0.4,0c0.1,0,0.3,0,0.5,0  c0.2,0,0.4,0,0.6,0c0.2,0,0.3,0,0.4-0.1c0.1,0,0.2-0.1,0.2-0.1c0-0.1,0.1-0.1,0.1-0.2l2.9-8.5c0.1-0.2,0.1-0.3,0.1-0.4  c0-0.1,0-0.2,0-0.2C198.2,54.7,198.1,54.7,198,54.7z"></path>	<path id="XMLID_22672_" class="st0" d="M207.5,56.4c-0.1,0-0.1-0.1-0.3-0.1c-0.1,0-0.2,0-0.4,0c-0.2,0-0.3,0-0.4,0  c-0.1,0-0.2,0-0.3,0.1c-0.1,0-0.1,0.1-0.1,0.2c0,0.1,0,0.2,0,0.3v0.4c0,0.4-0.1,0.6-0.2,0.9c-0.1,0.2-0.3,0.4-0.6,0.4v-1.2  c0,0,0-0.1,0-0.1c0,0-0.1-0.1-0.1-0.1c-0.1,0-0.2,0-0.3-0.1c-0.1,0-0.3,0-0.5,0c-0.2,0-0.3,0-0.5,0c-0.1,0-0.2,0-0.3,0.1  c-0.1,0-0.1,0.1-0.1,0.1c0,0,0,0.1,0,0.1v4.4c-0.3,0.3-0.5,0.6-0.8,0.8c-0.2,0.2-0.5,0.3-0.7,0.3c-0.2,0-0.4,0-0.5-0.1  c-0.1-0.1-0.3-0.2-0.4-0.3c0-0.1-0.1-0.1-0.1-0.2c0-0.1-0.1-0.2-0.1-0.3c0-0.1,0-0.2,0-0.3c0-0.1,0-0.3,0-0.5v-3.7c0,0,0-0.1,0-0.1  c0,0-0.1-0.1-0.2-0.1c-0.1,0-0.2,0-0.3-0.1c-0.1,0-0.3,0-0.5,0c-0.2,0-0.3,0-0.5,0c-0.1,0-0.2,0-0.3,0.1c-0.1,0-0.1,0.1-0.1,0.1  c0,0,0,0.1,0,0.1v4.1c0,0.5,0,0.9,0.1,1.3c0.1,0.3,0.2,0.6,0.4,0.9c0.2,0.3,0.4,0.5,0.8,0.6c0.3,0.1,0.7,0.2,1.2,0.2  c0.8,0,1.6-0.4,2.3-1.2V64c0,0,0,0.1,0,0.1c0,0,0.1,0.1,0.1,0.1c0.1,0,0.1,0,0.2,0.1c0.1,0,0.2,0,0.4,0c0.3,0,0.5,0,0.6-0.1  c0.1,0,0.2-0.1,0.2-0.2v-4.3c0.5,0,0.9-0.1,1.2-0.2c0.3-0.1,0.6-0.4,0.8-0.6c0.2-0.3,0.3-0.6,0.4-0.9c0.1-0.3,0.1-0.7,0.1-1.1  c0-0.1,0-0.2,0-0.3C207.6,56.5,207.6,56.4,207.5,56.4z"></path>	<path id="XMLID_22671_" class="st0" d="M212.5,65.1c-0.1-0.1-0.2-0.1-0.3-0.2c-0.1,0-0.3,0-0.5,0c-0.2,0-0.4,0-0.5,0  c-0.1,0-0.2,0.1-0.3,0.2c-0.1,0.1-0.1,0.2-0.2,0.3c0,0.1-0.1,0.3-0.1,0.4c0,0.2,0,0.3,0,0.4c0,0.1,0.1,0.2,0.2,0.3  c0.1,0.1,0.2,0.1,0.3,0.2c0.1,0,0.3,0,0.5,0c0.2,0,0.4,0,0.5,0c0.1,0,0.2-0.1,0.3-0.2c0.1-0.1,0.1-0.2,0.2-0.3c0-0.1,0-0.3,0-0.4  c0-0.2,0-0.3,0-0.4C212.7,65.3,212.6,65.2,212.5,65.1z"></path>	<path id="XMLID_22668_" class="st0" d="M217,56.4c-0.1,0-0.1-0.1-0.3-0.1c-0.1,0-0.2,0-0.4,0c-0.2,0-0.3,0-0.4,0  c-0.1,0-0.2,0-0.3,0.1c-0.1,0-0.1,0.1-0.1,0.2c0,0.1,0,0.2,0,0.3v0.4c0,0.3-0.1,0.6-0.2,0.8c-0.1,0.2-0.3,0.4-0.4,0.4  c-0.3-0.5-0.6-0.9-1.1-1.2c-0.5-0.3-1.1-0.4-1.9-0.4c-0.6,0-1.1,0.1-1.6,0.3c-0.5,0.2-0.8,0.4-1.1,0.8c-0.3,0.3-0.5,0.7-0.7,1.2  c-0.2,0.5-0.2,1-0.2,1.5c0,0.6,0.1,1.1,0.2,1.6c0.1,0.5,0.4,0.8,0.6,1.2c0.3,0.3,0.6,0.6,1.1,0.7c0.4,0.2,0.9,0.2,1.5,0.2  c0.6,0,1.1-0.1,1.6-0.3c0.5-0.2,0.8-0.4,1.1-0.8c0.3-0.3,0.5-0.7,0.7-1.2c0.1-0.5,0.2-1,0.2-1.5c0-0.3,0-0.7-0.1-0.9  c0.7-0.1,1.2-0.4,1.5-0.9c0.3-0.5,0.5-1.1,0.5-1.9c0-0.1,0-0.2,0-0.3C217.1,56.5,217,56.4,217,56.4z M212.9,62.4  c-0.3,0.4-0.7,0.6-1.2,0.6c-0.3,0-0.6-0.1-0.8-0.2c-0.2-0.1-0.4-0.3-0.5-0.5c-0.1-0.2-0.2-0.4-0.3-0.7c-0.1-0.3-0.1-0.6-0.1-0.9  c0-0.7,0.1-1.2,0.4-1.6c0.3-0.4,0.7-0.6,1.2-0.6c0.3,0,0.6,0.1,0.8,0.2c0.2,0.1,0.4,0.3,0.5,0.5c0.1,0.2,0.2,0.4,0.3,0.7  c0.1,0.3,0.1,0.6,0.1,0.9C213.3,61.4,213.2,62,212.9,62.4z"></path>	<path id="XMLID_22666_" class="st0" d="M223.8,57.8c-0.2-0.3-0.4-0.5-0.8-0.6c-0.3-0.1-0.7-0.2-1.1-0.2c-0.4,0-0.8,0.1-1.2,0.3  c-0.4,0.2-0.8,0.5-1.1,0.9v-0.8c0,0,0-0.1,0-0.1c0,0-0.1-0.1-0.1-0.1c-0.1,0-0.1,0-0.2-0.1c-0.1,0-0.2,0-0.4,0c-0.2,0-0.3,0-0.4,0  c-0.1,0-0.2,0-0.2,0.1c-0.1,0-0.1,0.1-0.1,0.1c0,0,0,0.1,0,0.1V64c0,0,0,0.1,0,0.1c0,0,0.1,0.1,0.2,0.1c0.1,0,0.2,0,0.3,0.1  c0.1,0,0.3,0,0.5,0c0.2,0,0.3,0,0.5,0c0.1,0,0.2,0,0.3-0.1c0.1,0,0.1-0.1,0.2-0.1c0,0,0-0.1,0-0.1v-4.4c0.3-0.3,0.5-0.6,0.8-0.8  c0.2-0.2,0.5-0.3,0.7-0.3c0.2,0,0.4,0,0.5,0.1c0.1,0.1,0.3,0.2,0.3,0.3c0.1,0.1,0.2,0.3,0.2,0.5c0,0.2,0.1,0.4,0.1,0.8V64  c0,0,0,0.1,0,0.1c0,0,0.1,0.1,0.1,0.1c0.1,0,0.2,0,0.3,0.1c0.1,0,0.3,0,0.5,0c0.2,0,0.3,0,0.4,0c0.1,0,0.2,0,0.3-0.1  c0.1,0,0.1-0.1,0.1-0.1c0,0,0-0.1,0-0.1v-4.1c0-0.5,0-0.9-0.1-1.2C224.2,58.4,224,58.1,223.8,57.8z"></path>	<path id="XMLID_22660_" class="st0" d="M231.7,57.2h-2.1c-0.2,0-0.3-0.1-0.5-0.1c-0.2,0-0.4,0-0.6,0c-0.4,0-0.8,0.1-1.1,0.2  c-0.3,0.1-0.6,0.3-0.9,0.5c-0.2,0.2-0.4,0.5-0.6,0.8c-0.1,0.3-0.2,0.7-0.2,1c0,0.4,0.1,0.7,0.2,0.9c0.1,0.2,0.2,0.5,0.4,0.6  c-0.2,0.2-0.4,0.4-0.5,0.7c-0.1,0.2-0.2,0.5-0.2,0.8c0,0.2,0.1,0.4,0.2,0.6c0.1,0.2,0.3,0.4,0.5,0.5c-0.2,0.1-0.3,0.2-0.4,0.4  c-0.1,0.1-0.2,0.3-0.3,0.4c-0.1,0.1-0.1,0.3-0.2,0.4c0,0.1-0.1,0.3-0.1,0.5c0,0.3,0.1,0.5,0.2,0.7c0.1,0.2,0.3,0.4,0.6,0.6  c0.3,0.2,0.6,0.3,1,0.4c0.4,0.1,0.9,0.1,1.4,0.1c0.6,0,1.1-0.1,1.5-0.2c0.4-0.1,0.8-0.3,1.1-0.5c0.3-0.2,0.5-0.5,0.6-0.8  c0.1-0.3,0.2-0.6,0.2-0.9c0-0.3-0.1-0.6-0.2-0.8c-0.1-0.2-0.3-0.4-0.5-0.6c-0.2-0.2-0.4-0.3-0.7-0.4c-0.3-0.1-0.6-0.1-1-0.2  l-1.6-0.1c-0.2,0-0.4-0.1-0.5-0.2c-0.1-0.1-0.2-0.2-0.2-0.4c0-0.1,0-0.2,0.1-0.3c0-0.1,0.1-0.2,0.2-0.2c0.1,0.1,0.3,0.1,0.4,0.2  c0.2,0.1,0.4,0.1,0.6,0.1c0.4,0,0.8-0.1,1.1-0.2c0.3-0.1,0.6-0.3,0.9-0.5c0.2-0.2,0.4-0.5,0.6-0.8c0.1-0.3,0.2-0.6,0.2-1  c0-0.2,0-0.3-0.1-0.5c0-0.2-0.1-0.3-0.2-0.4h0.8c0.1,0,0.1-0.1,0.2-0.2c0.1-0.1,0.1-0.3,0.1-0.5c0-0.3,0-0.4-0.1-0.6  C231.9,57.2,231.8,57.2,231.7,57.2z M227.2,64.5c0-0.1,0.1-0.2,0.2-0.2c0.1-0.1,0.2-0.2,0.3-0.3l1.3,0c0.3,0,0.6,0.1,0.7,0.2  c0.2,0.1,0.3,0.3,0.3,0.5c0,0.1,0,0.3-0.1,0.4c0,0.1-0.1,0.2-0.3,0.3c-0.1,0.1-0.3,0.2-0.5,0.2c-0.2,0.1-0.4,0.1-0.7,0.1  c-0.5,0-0.8-0.1-1.1-0.2c-0.3-0.1-0.4-0.3-0.4-0.6c0-0.1,0-0.2,0-0.2C227.2,64.7,227.2,64.6,227.2,64.5z M229.6,59.9  c0,0.1-0.1,0.3-0.2,0.4c-0.1,0.1-0.2,0.2-0.3,0.2c-0.1,0.1-0.3,0.1-0.5,0.1c-0.4,0-0.6-0.1-0.8-0.3c-0.2-0.2-0.3-0.5-0.3-0.8  c0-0.2,0-0.3,0.1-0.4c0-0.1,0.1-0.3,0.2-0.4c0.1-0.1,0.2-0.2,0.3-0.3c0.1-0.1,0.3-0.1,0.5-0.1c0.4,0,0.6,0.1,0.8,0.3  c0.2,0.2,0.3,0.5,0.3,0.8C229.6,59.6,229.6,59.7,229.6,59.9z"></path></g><g>	<path class="st0" d="M217.6,27.3c0.3,0.1,0.6,0,0.7-0.3c0.1-0.3-0.1-0.6-0.3-0.7c-0.3-0.1-0.6,0-0.7,0.3  C217.2,26.9,217.4,27.2,217.6,27.3z"></path>	<path class="st0" d="M222.7,24.4c-0.2,0.6-0.8,0.9-1.3,0.7c-0.6-0.2-0.9-0.8-0.7-1.4c0.2-0.6,0.7-0.9,1.3-0.7  C222.6,23.2,222.9,23.9,222.7,24.4z M222.4,24.3c0.1-0.4-0.1-0.8-0.5-0.9c-0.4-0.1-0.8,0.1-0.9,0.5c-0.1,0.4,0.1,0.8,0.5,0.9  C221.9,24.9,222.3,24.7,222.4,24.3z"></path>	<path class="st0" d="M237.6,10.8c-0.1,0.3-0.6,0.9-1.2,1.8c-0.7,0.9-3.3,3.7-6,6.1c-2.6,2.5-5.2,4.6-5.2,4.6c0,0-1.1,1-1.6,1.6  c-0.3,0.4-1.2,1.1-1.4,3.4c-0.2,1.8-0.9,3.6-2,5c-1.1,1.4-3.5,3.2-6.1,4.2c-1.8,0.7-5.7,1.9-10.4,2.8c-4.7,0.9-10,1.3-14.6,0.7  l0.3-0.9c0.9,0.1,4.4,0.2,5.2,0.2l0-0.3c-0.8,0-3.3-0.2-5.1-0.3l0.2-0.8c1.4,0.2,3.9,0.4,5,0.4l0-0.3c-1.2,0-3.5-0.3-4.9-0.4  l0.2-0.8c1.3,0.2,3.7,0.4,4.8,0.5l0-0.3c-1.1,0-3.4-0.3-4.7-0.5l0.2-0.7c1.2,0.2,3.6,0.5,4.6,0.6l0-0.3c-1.5-0.2-3.1-0.4-4.6-0.6  l0.3-1.1c1.1,0.2,4.8,0.8,9.1,0.9c4.4,0.1,9.5-0.2,13.3-1.5c4.1-1.3,5.2-2.8,6.2-4.4c0.8-1.4,0.6-3.4,0.5-3.7  c-0.1-1.2-0.9-3.2,0.7-4.6c1.2-1.1,2.4-0.8,3-0.7c8.6-4.4,14.1-10.9,14-10.8C237.4,10.6,237.6,10.7,237.6,10.8z M196.6,38.8  c0-0.6,0-0.9-0.3-0.9c0,0-0.4-0.2-0.5,0.8c-0.1,0.9,0.1,1.1,0.3,1.1C196.4,39.8,196.6,39.7,196.6,38.8z M197.8,38.8  c0-0.6,0-0.8-0.3-0.8c0,0-0.4-0.1-0.4,0.7c-0.1,0.8,0.1,1,0.3,1C197.6,39.7,197.8,39.6,197.8,38.8z M199,38.7c0-0.5,0-0.7-0.3-0.7  c0,0-0.3-0.1-0.4,0.6c0,0.8,0.1,0.9,0.3,0.9C198.8,39.5,198.9,39.5,199,38.7z M200.1,38.7c0-0.5,0-0.7-0.2-0.7c0,0-0.3-0.1-0.4,0.6  c0,0.7,0.1,0.9,0.3,0.9C200,39.4,200.1,39.4,200.1,38.7z M221.5,26.4c-0.3-0.1-0.6-0.2-0.6-0.2c0-0.1,1.6,6.1-7.5,9.5  c-1.4,0.5-6.7,2-12.4,2.2l0,1.5c0,0.1,9.7-1.5,12.6-2.8C216,35.7,222.1,32.9,221.5,26.4z M223.1,24.5c0.2-0.8-0.2-1.6-1-1.8  c-0.7-0.2-1.5,0.1-1.7,0.9c-0.2,0.8,0.2,1.6,0.9,1.8C222,25.7,222.8,25.3,223.1,24.5z M228.4,19.4c-0.5,0.3-4,2.6-4.3,2.8  c0.3,0.3,0.3,0.5,0.3,0.5C224.5,22.7,228.2,19.9,228.4,19.4z"></path>	<path class="st0" d="M207.9,29.3c0.7-0.2,1.5-0.4,2.2-0.6l0.2,0.5c-0.7,0.2-1.5,0.4-2.2,0.6l0.2,0.8c0.8-0.2,1.5-0.4,2.3-0.6  l0.1,0.4c-0.8,0.2-1.5,0.4-2.3,0.6l0.2,0.8c0.8-0.2,1.5-0.4,2.3-0.6l0.1,0.4c-0.8,0.2-1.5,0.4-2.3,0.6l0.2,0.8  c0.8-0.2,1.6-0.4,2.4-0.6l0.1,0.4c-0.8,0.2-1.6,0.4-2.4,0.6l0.2,0.8c0.8-0.2,1.6-0.4,2.4-0.6l0.1,0.4c-0.8,0.2-1.6,0.4-2.4,0.6  l0.1,0.6c0,0,2.4-0.5,3.5-0.9l-2-6.6c-0.7-0.8-1.5-1.6-2.2-2.4l-0.7,0.2c0.7,0.8,1.4,1.6,2.1,2.4l-0.5,0.1  c-0.7-0.8-1.5-1.6-2.2-2.4l-0.8,0.2c0.7,0.8,1.4,1.6,2.2,2.4l-0.5,0.1c-0.7-0.8-1.4-1.6-2.1-2.4l-0.8,0.2c0.7,0.8,1.4,1.6,2.2,2.4  L207.9,29.3z"></path>	<path class="st0" d="M213.4,34.1c0.5-0.1,0.7-0.3,0.7-0.3c-0.6-2.2-1.3-4.4-1.9-6.5c-0.7-0.8-1.5-1.5-2.2-2.3l-0.8,0.2  c0.7,0.8,1.5,1.6,2.2,2.3C212.1,29.8,212.8,31.9,213.4,34.1z"></path>	<path class="st0" d="M214.5,37.8c-2.1,0.9-4.2,1.3-4.8,1.6l0.6,0.6c1.2-0.4,2.4-0.7,3.6-1.1l0.1,0.3c-1.1,0.4-2.3,0.7-3.4,1.1  l0.6,0.5c1-0.3,2-0.7,3.1-1l0.2,0.3c-0.9,0.3-1.9,0.6-2.9,0.9l0.7,0.6c0.8-0.3,1.6-0.5,2.5-0.8l0.2,0.4c-0.7,0.3-1.5,0.5-2.2,0.7  l0.6,0.5c0.6-0.2,1.3-0.4,1.9-0.6l0.2,0.4c-0.6,0.2-1.1,0.4-1.7,0.5l-0.1,1l0.5,0.1l0.1-0.5l0.4-0.1l-0.1,0.7l0.5,0.1l0.2-1  l0.4-0.1l-0.3,1.2l0.7,0.1l0.4-1.6L214.5,37.8z"></path>	<path class="st0" d="M216,37.1c-0.2,0.1-1.1,0.5-1.1,0.5l2,4.7c-0.2,0.6-0.3,1.2-0.5,1.9l0.8,0.1c0.2-0.8,0.4-1.6,0.6-2.3L216,37.1  z"></path>	<path class="st0" d="M213.2,27.3l-0.1-0.5c0,0,5.3-1.7,5.7-1.9c0,0.9,0.4,2,0.3,2.9c-0.1,0.1-5.7,1.9-5.7,1.9l-0.1-0.5l1-0.3  l-0.1-0.3l-1,0.3l0-0.4l1-0.3l0-0.3l-1,0.3l0-0.4c0.3-0.1,0.7-0.2,1-0.3l0-0.3C213.9,27.1,213.5,27.2,213.2,27.3z M217,26.5  c-0.2,0.5,0.1,1,0.5,1.1c0.5,0.2,0.9-0.1,1.1-0.5c0.1-0.5-0.1-1-0.6-1.1C217.6,25.8,217.1,26.1,217,26.5z M215.8,26.7  c0,0.6,0.2,1.5,0.2,1.5c0.2,0,0.3-0.1,0.4-0.1l-0.2-1.6L215.8,26.7z M214.9,27c0,0.5,0.2,1.6,0.2,1.6s0.2-0.1,0.4-0.2  c0-0.2-0.1-0.8-0.2-1.6C215.3,26.9,215.2,26.9,214.9,27z"></path>	<path class="st0" d="M209.5,40.1l-0.5-0.4c0,0-0.9,1.9-1.5,2.2c-0.3,0.2-0.8,0.7-4.1-1.1c-0.1,0.1-0.2,0.2-0.4,0.3l1.4,0.8  l-0.1,0.3c-2.9,0-5.7-0.1-8.5-0.3c0,0.2-0.1,0.4-0.1,0.4c3.8,0.4,7.7,0.6,11.7,0.6C208.5,42.4,209.5,40.1,209.5,40.1z"></path>	<path class="st0" d="M208.9,42.4c-0.4,0.6-0.9,0.9-1.5,1c-1.6,0.1-3.2,0.2-4.8,0.2c-1.2-0.2-2.4-0.4-3.7-0.6l-0.1,0.3l1.1,0.3  l-0.1,0.2c-1.5,0.1-3,0.1-4.5,0.1c0,0.1,0,0.3-0.1,0.4c4.1,0,8.2-0.1,12.4-0.4c1-0.2,1.4-0.8,1.8-1.5c0.2-0.3,0.9-1.6,0.9-1.6  l-0.5-0.4C210,40.5,209.4,41.7,208.9,42.4z"></path></g></svg>